<svg width="170" height="27" viewBox="0 0 170 27" fill="none" xmlns="http://www.w3.org/2000/svg">
<mask id="path-1-outside-1_13_154" maskUnits="userSpaceOnUse" x="-1" y="-1" width="171" height="28" fill="black">
<rect fill="white" x="-1" y="-1" width="171" height="28"/>
<path d="M13.652 19.844C12.392 22.76 10.052 26.072 6.524 26.072C5.552 26.072 4.544 25.676 3.752 25.064C0.98 22.94 0.224 18.548 0.224 15.308C0.224 12.536 0.728 9.692 1.7 7.1C2.888 3.932 5.444 0.223999 9.224 0.223999C10.052 0.223999 10.844 0.403999 11.564 0.763999C14.084 2.06 14.48 5.552 13.256 8.108C13.076 8.504 12.572 8.792 12.14 8.792C11.312 8.792 10.628 7.892 10.988 7.064C11.384 6.092 11.6 4.904 11.204 3.932C10.844 3.068 10.16 2.744 9.368 2.744C5.228 2.744 3.32 9.368 2.924 12.536C2.6 14.912 2.672 17.432 3.32 19.772C3.752 21.176 4.868 23.588 6.632 23.588C8.9 23.588 10.52 20.564 11.384 18.764C11.6 18.332 12.032 18.116 12.464 18.116C12.68 18.116 12.896 18.188 13.076 18.26C13.616 18.512 13.904 19.268 13.652 19.844ZM19.2441 25.82C18.9921 26.216 18.5601 26.432 18.1641 26.432C17.6601 26.432 17.1561 26.144 16.9761 25.604C16.7601 25.028 17.0481 22.652 17.0841 22.04C17.1561 20.96 16.6161 15.416 16.5081 14.336C16.4361 13.58 15.9321 9.836 16.0041 9.044C16.0761 8.468 16.6521 7.964 17.2281 7.964C17.8041 7.964 18.3441 8.36 18.5241 8.972C18.5601 9.116 18.5241 9.296 18.5241 9.476C18.5601 10.052 18.9921 13.688 19.0281 14.3C19.4961 13.148 20.1441 12.032 20.9361 11.06C21.8361 10.016 24.3921 7.784 25.8681 7.784C26.4801 7.784 27.0561 8.144 27.2361 8.792C27.4161 9.476 26.9121 10.16 26.1921 10.304C25.9041 10.34 25.6161 10.52 25.3281 10.664C22.7001 12.14 21.6561 14.156 20.7921 16.928C20.5761 17.72 19.6041 21.356 19.6041 22.184C19.6041 22.868 19.5681 25.208 19.2441 25.82ZM40.2031 19.7C39.1591 22.832 36.1711 26.54 32.5351 26.54C31.9951 26.54 31.4911 26.432 31.0231 26.252C29.0071 25.532 28.0711 23.3 27.7831 21.32C27.3871 18.404 27.8191 15.38 28.7191 12.644C29.5831 10.124 31.3111 7.136 34.3351 7.136C35.0191 7.136 35.7391 7.352 36.3151 7.712C38.8351 9.476 38.4751 13.076 36.3871 15.344C35.2351 16.604 33.2911 17.864 31.4911 17.864C31.0591 17.864 30.6271 17.792 30.1951 17.684C30.0151 19.556 30.0871 23.012 31.7791 23.84C32.1751 24.056 32.6431 24.056 33.0751 23.948C35.6311 23.48 37.4311 20.312 38.0791 18.08C38.1871 17.54 38.7631 17.18 39.2671 17.18C39.9871 17.18 40.5991 17.828 40.5271 18.656C40.4911 18.8 40.2391 19.556 40.2031 19.7ZM30.6631 15.056C30.8791 15.236 31.1671 15.344 31.4551 15.344C33.1111 15.344 34.8391 13.616 35.4151 12.212C35.6671 11.528 35.6311 10.664 35.1991 10.088C34.9831 9.764 34.6591 9.62 34.2991 9.62C32.2831 9.62 30.9871 13.508 30.6631 15.056ZM51.9172 19.232C51.0892 21.608 49.3972 26.144 46.3372 26.144C45.3652 26.144 44.3572 25.784 43.7452 25.136C40.7212 22.112 42.0892 15.38 44.1412 11.672C45.6172 9.08 47.4892 7.568 50.5492 7.568C51.4132 7.568 52.4572 7.712 53.1412 8.288C53.1772 8.324 53.3932 8.396 53.4652 8.396C54.1492 8.72 54.2572 9.98 54.1852 10.736C53.8972 13.004 53.9692 15.344 54.2212 17.612C54.4012 19.268 54.8692 22.652 56.0212 23.948C56.9212 24.884 55.9852 26.324 54.6892 26C54.2212 25.856 53.5372 24.848 53.3212 24.38C52.5652 22.76 52.1692 20.996 51.9172 19.232ZM45.1492 22.94C45.4012 23.336 45.8332 23.66 46.2652 23.66C46.4452 23.66 46.6252 23.588 46.7692 23.48C49.1812 21.788 51.0532 13.184 51.6292 10.304C51.6652 10.16 51.3772 10.16 51.1972 10.124C50.4052 10.016 49.5412 10.016 48.7852 10.376C46.0492 11.6 44.6452 16.604 44.5012 19.268C44.4652 20.528 44.5012 21.896 45.1492 22.94ZM67.0619 25.316C66.4499 25.64 65.8019 25.856 65.1179 25.856C63.7139 25.856 62.2019 25.1 61.3379 24.056C60.7259 23.264 60.3299 22.292 60.0779 21.284C59.2859 17.936 59.3579 14.372 59.4659 10.916C58.8539 10.916 58.1699 11.096 57.6659 10.772C56.9099 10.232 56.9459 9.116 57.7379 8.648C58.2779 8.324 58.9619 8.396 59.5379 8.396C59.5739 7.712 59.7899 4.652 60.0059 4.004C60.2219 3.392 60.7259 3.104 61.2299 3.104C61.8779 3.104 62.4899 3.572 62.4899 4.364C62.4899 4.544 62.4539 4.688 62.4179 4.832C62.2379 6.02 62.1299 7.208 62.0579 8.432C62.9579 8.432 63.8219 8.468 64.6859 8.576C66.2339 8.828 66.1259 10.988 64.5779 11.096C64.3619 11.132 64.1819 11.06 63.9659 11.024C63.7139 10.988 62.2379 10.952 61.9859 10.952C61.9139 13.58 61.6259 20.744 63.4619 22.652C63.8939 23.084 64.5419 23.336 65.1179 23.336C65.5139 23.336 65.8379 23.048 66.1979 22.976C67.6019 22.724 68.2499 24.596 67.0619 25.316ZM81.6172 19.7C80.5732 22.832 77.5852 26.54 73.9492 26.54C73.4092 26.54 72.9052 26.432 72.4372 26.252C70.4212 25.532 69.4852 23.3 69.1972 21.32C68.8012 18.404 69.2332 15.38 70.1332 12.644C70.9972 10.124 72.7252 7.136 75.7492 7.136C76.4332 7.136 77.1532 7.352 77.7292 7.712C80.2492 9.476 79.8892 13.076 77.8012 15.344C76.6492 16.604 74.7052 17.864 72.9052 17.864C72.4732 17.864 72.0412 17.792 71.6092 17.684C71.4292 19.556 71.5012 23.012 73.1932 23.84C73.5892 24.056 74.0572 24.056 74.4892 23.948C77.0452 23.48 78.8452 20.312 79.4932 18.08C79.6012 17.54 80.1772 17.18 80.6812 17.18C81.4012 17.18 82.0132 17.828 81.9412 18.656C81.9052 18.8 81.6532 19.556 81.6172 19.7ZM72.0772 15.056C72.2932 15.236 72.5812 15.344 72.8692 15.344C74.5252 15.344 76.2532 13.616 76.8292 12.212C77.0812 11.528 77.0452 10.664 76.6132 10.088C76.3972 9.764 76.0732 9.62 75.7132 9.62C73.6972 9.62 72.4012 13.508 72.0772 15.056ZM106.183 19.844C104.923 22.76 102.583 26.072 99.0553 26.072C98.0833 26.072 97.0753 25.676 96.2832 25.064C93.5113 22.94 92.7553 18.548 92.7553 15.308C92.7553 12.536 93.2593 9.692 94.2313 7.1C95.4193 3.932 97.9753 0.223999 101.755 0.223999C102.583 0.223999 103.375 0.403999 104.095 0.763999C106.615 2.06 107.011 5.552 105.787 8.108C105.607 8.504 105.103 8.792 104.671 8.792C103.843 8.792 103.159 7.892 103.519 7.064C103.915 6.092 104.131 4.904 103.735 3.932C103.375 3.068 102.691 2.744 101.899 2.744C97.7593 2.744 95.8513 9.368 95.4553 12.536C95.1313 14.912 95.2033 17.432 95.8513 19.772C96.2832 21.176 97.3993 23.588 99.1633 23.588C101.431 23.588 103.051 20.564 103.915 18.764C104.131 18.332 104.563 18.116 104.995 18.116C105.211 18.116 105.427 18.188 105.607 18.26C106.147 18.512 106.435 19.268 106.183 19.844ZM118.327 19.232C117.499 21.608 115.807 26.144 112.747 26.144C111.775 26.144 110.767 25.784 110.155 25.136C107.131 22.112 108.499 15.38 110.551 11.672C112.027 9.08 113.899 7.568 116.959 7.568C117.823 7.568 118.867 7.712 119.551 8.288C119.587 8.324 119.803 8.396 119.875 8.396C120.559 8.72 120.667 9.98 120.595 10.736C120.307 13.004 120.379 15.344 120.631 17.612C120.811 19.268 121.279 22.652 122.431 23.948C123.331 24.884 122.395 26.324 121.099 26C120.631 25.856 119.947 24.848 119.731 24.38C118.975 22.76 118.579 20.996 118.327 19.232ZM111.559 22.94C111.811 23.336 112.243 23.66 112.675 23.66C112.855 23.66 113.035 23.588 113.179 23.48C115.591 21.788 117.463 13.184 118.039 10.304C118.075 10.16 117.787 10.16 117.607 10.124C116.815 10.016 115.951 10.016 115.195 10.376C112.459 11.6 111.055 16.604 110.911 19.268C110.875 20.528 110.911 21.896 111.559 22.94ZM136.848 19.7C135.804 22.832 132.816 26.54 129.18 26.54C128.64 26.54 128.136 26.432 127.668 26.252C125.688 25.568 124.716 23.264 124.428 21.32C124.104 18.944 124.32 16.496 124.932 14.192C125.616 11.312 127.416 7.136 130.944 7.136C133.212 7.136 134.724 9.044 134.724 11.24C134.724 12.14 134.652 13.508 133.428 13.508C132.924 13.508 132.42 13.22 132.204 12.68C132.024 12.212 132.204 11.672 132.204 11.168C132.132 10.412 131.88 9.656 130.98 9.656C128.496 9.656 127.272 14.732 126.984 16.568C126.66 18.584 126.552 22.58 128.244 23.732C128.532 23.948 128.856 24.02 129.216 24.02C130.224 24.02 131.448 23.264 132.204 22.544C133.428 21.32 134.256 19.7 134.724 18.08C134.832 17.54 135.408 17.18 135.912 17.18C136.632 17.18 137.244 17.828 137.172 18.656C137.136 18.8 136.884 19.556 136.848 19.7ZM141.363 26.108C141.147 26.324 140.859 26.432 140.571 26.432C139.887 26.432 139.239 25.892 139.275 25.172C139.923 17.324 140.139 9.368 139.599 1.484C139.563 0.692 140.211 0.188 140.895 0.188C141.687 0.188 142.119 0.799998 142.119 1.556C142.371 5.336 142.479 9.152 142.407 12.932C143.631 10.232 145.719 7.244 149.031 7.244C153.027 7.244 153.711 12.176 153.855 15.236C153.999 18.08 153.783 20.924 153.783 23.768C153.783 24.2 153.819 24.668 153.855 25.064C153.891 25.352 153.783 25.64 153.639 25.856C153.387 26.216 153.027 26.36 152.631 26.36C152.163 26.36 151.695 26.108 151.443 25.568C151.299 25.28 151.263 24.092 151.263 23.768C151.263 20.42 151.623 17.036 151.227 13.724C151.047 12.5 150.615 9.728 148.959 9.728C144.855 9.728 142.947 19.196 142.371 22.22C142.299 22.652 141.831 25.136 141.723 25.568C141.687 25.784 141.543 25.964 141.363 26.108ZM168.629 19.7C167.585 22.832 164.597 26.54 160.961 26.54C160.421 26.54 159.917 26.432 159.449 26.252C157.433 25.532 156.497 23.3 156.209 21.32C155.813 18.404 156.245 15.38 157.145 12.644C158.009 10.124 159.737 7.136 162.761 7.136C163.445 7.136 164.165 7.352 164.741 7.712C167.261 9.476 166.901 13.076 164.813 15.344C163.661 16.604 161.717 17.864 159.917 17.864C159.485 17.864 159.053 17.792 158.621 17.684C158.441 19.556 158.513 23.012 160.205 23.84C160.601 24.056 161.069 24.056 161.501 23.948C164.057 23.48 165.857 20.312 166.505 18.08C166.613 17.54 167.189 17.18 167.693 17.18C168.413 17.18 169.025 17.828 168.953 18.656C168.917 18.8 168.665 19.556 168.629 19.7ZM159.089 15.056C159.305 15.236 159.593 15.344 159.881 15.344C161.537 15.344 163.265 13.616 163.841 12.212C164.093 11.528 164.057 10.664 163.625 10.088C163.409 9.764 163.085 9.62 162.725 9.62C160.709 9.62 159.413 13.508 159.089 15.056Z"/>
</mask>
<path d="M13.652 19.844C12.392 22.76 10.052 26.072 6.524 26.072C5.552 26.072 4.544 25.676 3.752 25.064C0.98 22.94 0.224 18.548 0.224 15.308C0.224 12.536 0.728 9.692 1.7 7.1C2.888 3.932 5.444 0.223999 9.224 0.223999C10.052 0.223999 10.844 0.403999 11.564 0.763999C14.084 2.06 14.48 5.552 13.256 8.108C13.076 8.504 12.572 8.792 12.14 8.792C11.312 8.792 10.628 7.892 10.988 7.064C11.384 6.092 11.6 4.904 11.204 3.932C10.844 3.068 10.16 2.744 9.368 2.744C5.228 2.744 3.32 9.368 2.924 12.536C2.6 14.912 2.672 17.432 3.32 19.772C3.752 21.176 4.868 23.588 6.632 23.588C8.9 23.588 10.52 20.564 11.384 18.764C11.6 18.332 12.032 18.116 12.464 18.116C12.68 18.116 12.896 18.188 13.076 18.26C13.616 18.512 13.904 19.268 13.652 19.844ZM19.2441 25.82C18.9921 26.216 18.5601 26.432 18.1641 26.432C17.6601 26.432 17.1561 26.144 16.9761 25.604C16.7601 25.028 17.0481 22.652 17.0841 22.04C17.1561 20.96 16.6161 15.416 16.5081 14.336C16.4361 13.58 15.9321 9.836 16.0041 9.044C16.0761 8.468 16.6521 7.964 17.2281 7.964C17.8041 7.964 18.3441 8.36 18.5241 8.972C18.5601 9.116 18.5241 9.296 18.5241 9.476C18.5601 10.052 18.9921 13.688 19.0281 14.3C19.4961 13.148 20.1441 12.032 20.9361 11.06C21.8361 10.016 24.3921 7.784 25.8681 7.784C26.4801 7.784 27.0561 8.144 27.2361 8.792C27.4161 9.476 26.9121 10.16 26.1921 10.304C25.9041 10.34 25.6161 10.52 25.3281 10.664C22.7001 12.14 21.6561 14.156 20.7921 16.928C20.5761 17.72 19.6041 21.356 19.6041 22.184C19.6041 22.868 19.5681 25.208 19.2441 25.82ZM40.2031 19.7C39.1591 22.832 36.1711 26.54 32.5351 26.54C31.9951 26.54 31.4911 26.432 31.0231 26.252C29.0071 25.532 28.0711 23.3 27.7831 21.32C27.3871 18.404 27.8191 15.38 28.7191 12.644C29.5831 10.124 31.3111 7.136 34.3351 7.136C35.0191 7.136 35.7391 7.352 36.3151 7.712C38.8351 9.476 38.4751 13.076 36.3871 15.344C35.2351 16.604 33.2911 17.864 31.4911 17.864C31.0591 17.864 30.6271 17.792 30.1951 17.684C30.0151 19.556 30.0871 23.012 31.7791 23.84C32.1751 24.056 32.6431 24.056 33.0751 23.948C35.6311 23.48 37.4311 20.312 38.0791 18.08C38.1871 17.54 38.7631 17.18 39.2671 17.18C39.9871 17.18 40.5991 17.828 40.5271 18.656C40.4911 18.8 40.2391 19.556 40.2031 19.7ZM30.6631 15.056C30.8791 15.236 31.1671 15.344 31.4551 15.344C33.1111 15.344 34.8391 13.616 35.4151 12.212C35.6671 11.528 35.6311 10.664 35.1991 10.088C34.9831 9.764 34.6591 9.62 34.2991 9.62C32.2831 9.62 30.9871 13.508 30.6631 15.056ZM51.9172 19.232C51.0892 21.608 49.3972 26.144 46.3372 26.144C45.3652 26.144 44.3572 25.784 43.7452 25.136C40.7212 22.112 42.0892 15.38 44.1412 11.672C45.6172 9.08 47.4892 7.568 50.5492 7.568C51.4132 7.568 52.4572 7.712 53.1412 8.288C53.1772 8.324 53.3932 8.396 53.4652 8.396C54.1492 8.72 54.2572 9.98 54.1852 10.736C53.8972 13.004 53.9692 15.344 54.2212 17.612C54.4012 19.268 54.8692 22.652 56.0212 23.948C56.9212 24.884 55.9852 26.324 54.6892 26C54.2212 25.856 53.5372 24.848 53.3212 24.38C52.5652 22.76 52.1692 20.996 51.9172 19.232ZM45.1492 22.94C45.4012 23.336 45.8332 23.66 46.2652 23.66C46.4452 23.66 46.6252 23.588 46.7692 23.48C49.1812 21.788 51.0532 13.184 51.6292 10.304C51.6652 10.16 51.3772 10.16 51.1972 10.124C50.4052 10.016 49.5412 10.016 48.7852 10.376C46.0492 11.6 44.6452 16.604 44.5012 19.268C44.4652 20.528 44.5012 21.896 45.1492 22.94ZM67.0619 25.316C66.4499 25.64 65.8019 25.856 65.1179 25.856C63.7139 25.856 62.2019 25.1 61.3379 24.056C60.7259 23.264 60.3299 22.292 60.0779 21.284C59.2859 17.936 59.3579 14.372 59.4659 10.916C58.8539 10.916 58.1699 11.096 57.6659 10.772C56.9099 10.232 56.9459 9.116 57.7379 8.648C58.2779 8.324 58.9619 8.396 59.5379 8.396C59.5739 7.712 59.7899 4.652 60.0059 4.004C60.2219 3.392 60.7259 3.104 61.2299 3.104C61.8779 3.104 62.4899 3.572 62.4899 4.364C62.4899 4.544 62.4539 4.688 62.4179 4.832C62.2379 6.02 62.1299 7.208 62.0579 8.432C62.9579 8.432 63.8219 8.468 64.6859 8.576C66.2339 8.828 66.1259 10.988 64.5779 11.096C64.3619 11.132 64.1819 11.06 63.9659 11.024C63.7139 10.988 62.2379 10.952 61.9859 10.952C61.9139 13.58 61.6259 20.744 63.4619 22.652C63.8939 23.084 64.5419 23.336 65.1179 23.336C65.5139 23.336 65.8379 23.048 66.1979 22.976C67.6019 22.724 68.2499 24.596 67.0619 25.316ZM81.6172 19.7C80.5732 22.832 77.5852 26.54 73.9492 26.54C73.4092 26.54 72.9052 26.432 72.4372 26.252C70.4212 25.532 69.4852 23.3 69.1972 21.32C68.8012 18.404 69.2332 15.38 70.1332 12.644C70.9972 10.124 72.7252 7.136 75.7492 7.136C76.4332 7.136 77.1532 7.352 77.7292 7.712C80.2492 9.476 79.8892 13.076 77.8012 15.344C76.6492 16.604 74.7052 17.864 72.9052 17.864C72.4732 17.864 72.0412 17.792 71.6092 17.684C71.4292 19.556 71.5012 23.012 73.1932 23.84C73.5892 24.056 74.0572 24.056 74.4892 23.948C77.0452 23.48 78.8452 20.312 79.4932 18.08C79.6012 17.54 80.1772 17.18 80.6812 17.18C81.4012 17.18 82.0132 17.828 81.9412 18.656C81.9052 18.8 81.6532 19.556 81.6172 19.7ZM72.0772 15.056C72.2932 15.236 72.5812 15.344 72.8692 15.344C74.5252 15.344 76.2532 13.616 76.8292 12.212C77.0812 11.528 77.0452 10.664 76.6132 10.088C76.3972 9.764 76.0732 9.62 75.7132 9.62C73.6972 9.62 72.4012 13.508 72.0772 15.056ZM106.183 19.844C104.923 22.76 102.583 26.072 99.0553 26.072C98.0833 26.072 97.0753 25.676 96.2832 25.064C93.5113 22.94 92.7553 18.548 92.7553 15.308C92.7553 12.536 93.2593 9.692 94.2313 7.1C95.4193 3.932 97.9753 0.223999 101.755 0.223999C102.583 0.223999 103.375 0.403999 104.095 0.763999C106.615 2.06 107.011 5.552 105.787 8.108C105.607 8.504 105.103 8.792 104.671 8.792C103.843 8.792 103.159 7.892 103.519 7.064C103.915 6.092 104.131 4.904 103.735 3.932C103.375 3.068 102.691 2.744 101.899 2.744C97.7593 2.744 95.8513 9.368 95.4553 12.536C95.1313 14.912 95.2033 17.432 95.8513 19.772C96.2832 21.176 97.3993 23.588 99.1633 23.588C101.431 23.588 103.051 20.564 103.915 18.764C104.131 18.332 104.563 18.116 104.995 18.116C105.211 18.116 105.427 18.188 105.607 18.26C106.147 18.512 106.435 19.268 106.183 19.844ZM118.327 19.232C117.499 21.608 115.807 26.144 112.747 26.144C111.775 26.144 110.767 25.784 110.155 25.136C107.131 22.112 108.499 15.38 110.551 11.672C112.027 9.08 113.899 7.568 116.959 7.568C117.823 7.568 118.867 7.712 119.551 8.288C119.587 8.324 119.803 8.396 119.875 8.396C120.559 8.72 120.667 9.98 120.595 10.736C120.307 13.004 120.379 15.344 120.631 17.612C120.811 19.268 121.279 22.652 122.431 23.948C123.331 24.884 122.395 26.324 121.099 26C120.631 25.856 119.947 24.848 119.731 24.38C118.975 22.76 118.579 20.996 118.327 19.232ZM111.559 22.94C111.811 23.336 112.243 23.66 112.675 23.66C112.855 23.66 113.035 23.588 113.179 23.48C115.591 21.788 117.463 13.184 118.039 10.304C118.075 10.16 117.787 10.16 117.607 10.124C116.815 10.016 115.951 10.016 115.195 10.376C112.459 11.6 111.055 16.604 110.911 19.268C110.875 20.528 110.911 21.896 111.559 22.94ZM136.848 19.7C135.804 22.832 132.816 26.54 129.18 26.54C128.64 26.54 128.136 26.432 127.668 26.252C125.688 25.568 124.716 23.264 124.428 21.32C124.104 18.944 124.32 16.496 124.932 14.192C125.616 11.312 127.416 7.136 130.944 7.136C133.212 7.136 134.724 9.044 134.724 11.24C134.724 12.14 134.652 13.508 133.428 13.508C132.924 13.508 132.42 13.22 132.204 12.68C132.024 12.212 132.204 11.672 132.204 11.168C132.132 10.412 131.88 9.656 130.98 9.656C128.496 9.656 127.272 14.732 126.984 16.568C126.66 18.584 126.552 22.58 128.244 23.732C128.532 23.948 128.856 24.02 129.216 24.02C130.224 24.02 131.448 23.264 132.204 22.544C133.428 21.32 134.256 19.7 134.724 18.08C134.832 17.54 135.408 17.18 135.912 17.18C136.632 17.18 137.244 17.828 137.172 18.656C137.136 18.8 136.884 19.556 136.848 19.7ZM141.363 26.108C141.147 26.324 140.859 26.432 140.571 26.432C139.887 26.432 139.239 25.892 139.275 25.172C139.923 17.324 140.139 9.368 139.599 1.484C139.563 0.692 140.211 0.188 140.895 0.188C141.687 0.188 142.119 0.799998 142.119 1.556C142.371 5.336 142.479 9.152 142.407 12.932C143.631 10.232 145.719 7.244 149.031 7.244C153.027 7.244 153.711 12.176 153.855 15.236C153.999 18.08 153.783 20.924 153.783 23.768C153.783 24.2 153.819 24.668 153.855 25.064C153.891 25.352 153.783 25.64 153.639 25.856C153.387 26.216 153.027 26.36 152.631 26.36C152.163 26.36 151.695 26.108 151.443 25.568C151.299 25.28 151.263 24.092 151.263 23.768C151.263 20.42 151.623 17.036 151.227 13.724C151.047 12.5 150.615 9.728 148.959 9.728C144.855 9.728 142.947 19.196 142.371 22.22C142.299 22.652 141.831 25.136 141.723 25.568C141.687 25.784 141.543 25.964 141.363 26.108ZM168.629 19.7C167.585 22.832 164.597 26.54 160.961 26.54C160.421 26.54 159.917 26.432 159.449 26.252C157.433 25.532 156.497 23.3 156.209 21.32C155.813 18.404 156.245 15.38 157.145 12.644C158.009 10.124 159.737 7.136 162.761 7.136C163.445 7.136 164.165 7.352 164.741 7.712C167.261 9.476 166.901 13.076 164.813 15.344C163.661 16.604 161.717 17.864 159.917 17.864C159.485 17.864 159.053 17.792 158.621 17.684C158.441 19.556 158.513 23.012 160.205 23.84C160.601 24.056 161.069 24.056 161.501 23.948C164.057 23.48 165.857 20.312 166.505 18.08C166.613 17.54 167.189 17.18 167.693 17.18C168.413 17.18 169.025 17.828 168.953 18.656C168.917 18.8 168.665 19.556 168.629 19.7ZM159.089 15.056C159.305 15.236 159.593 15.344 159.881 15.344C161.537 15.344 163.265 13.616 163.841 12.212C164.093 11.528 164.057 10.664 163.625 10.088C163.409 9.764 163.085 9.62 162.725 9.62C160.709 9.62 159.413 13.508 159.089 15.056Z" fill="black"/>
<path d="M13.652 19.844L13.423 19.7438L13.4225 19.7448L13.652 19.844ZM3.752 25.064L3.90486 24.8662L3.90405 24.8656L3.752 25.064ZM1.7 7.1L1.46592 7.01222L1.7 7.1ZM11.564 0.763999L11.6783 0.541662L11.6758 0.540392L11.564 0.763999ZM13.256 8.108L13.0305 8L13.0284 8.00455L13.256 8.108ZM10.988 7.064L11.2173 7.16371L11.2195 7.15832L10.988 7.064ZM11.204 3.932L11.4355 3.83767L11.4348 3.83584L11.204 3.932ZM2.924 12.536L3.17172 12.5698L3.17207 12.567L2.924 12.536ZM3.32 19.772L3.07897 19.8387L3.08106 19.8455L3.32 19.772ZM11.384 18.764L11.1604 18.6522L11.1586 18.6558L11.384 18.764ZM13.076 18.26L13.1819 18.0331L13.1688 18.0279L13.076 18.26ZM13.4225 19.7448C12.7998 21.186 11.915 22.7127 10.7611 23.8754C9.60918 25.036 8.20238 25.822 6.524 25.822V26.322C8.37362 26.322 9.90083 25.452 11.1159 24.2276C12.329 23.0053 13.2442 21.418 13.8815 19.9432L13.4225 19.7448ZM6.524 25.822C5.61636 25.822 4.66081 25.4503 3.90486 24.8662L3.59914 25.2618C4.42719 25.9017 5.48764 26.322 6.524 26.322V25.822ZM3.90405 24.8656C2.57498 23.8472 1.7149 22.2729 1.18777 20.532C0.661281 18.7933 0.474 16.911 0.474 15.308H-0.0259999C-0.0259999 16.945 0.164719 18.8787 0.709229 20.677C1.2531 22.4731 2.15702 24.1568 3.59995 25.2624L3.90405 24.8656ZM0.474 15.308C0.474 12.5653 0.972858 9.75105 1.93408 7.18778L1.46592 7.01222C0.483142 9.63295 -0.0259999 12.5067 -0.0259999 15.308H0.474ZM1.93408 7.18778C2.51997 5.62541 3.44053 3.93844 4.67103 2.64641C5.90019 1.3558 7.42296 0.473999 9.224 0.473999V-0.026001C7.24504 -0.026001 5.59981 0.946199 4.30897 2.30159C3.01947 3.65556 2.06803 5.40659 1.46592 7.01222L1.93408 7.18778ZM9.224 0.473999C10.0152 0.473999 10.7687 0.64585 11.4522 0.987605L11.6758 0.540392C10.9193 0.162148 10.0888 -0.026001 9.224 -0.026001V0.473999ZM11.4497 0.98632C12.6265 1.59155 13.3185 2.71354 13.5685 4.0108C13.819 5.31058 13.6204 6.76829 13.0305 8.00002L13.4815 8.21598C14.1156 6.89171 14.331 5.32541 14.0595 3.9162C13.7875 2.50446 13.0215 1.23245 11.6783 0.541677L11.4497 0.98632ZM13.0284 8.00455C12.9643 8.1456 12.8343 8.28186 12.6639 8.38413C12.4938 8.48615 12.3038 8.542 12.14 8.542V9.042C12.4082 9.042 12.6862 8.95385 12.9211 8.81287C13.1557 8.67214 13.3677 8.4664 13.4836 8.21145L13.0284 8.00455ZM12.14 8.542C11.474 8.542 10.9361 7.8103 11.2173 7.16368L10.7587 6.96432C10.3199 7.9737 11.15 9.042 12.14 9.042V8.542ZM11.2195 7.15832C11.625 6.16308 11.868 4.89925 11.4355 3.83767L10.9725 4.02632C11.332 4.90875 11.143 6.02092 10.7565 6.96968L11.2195 7.15832ZM11.4348 3.83584C11.2364 3.35973 10.942 3.01887 10.5766 2.79963C10.2137 2.58186 9.79739 2.494 9.368 2.494V2.994C9.73061 2.994 10.0523 3.06814 10.3194 3.22837C10.584 3.38713 10.8116 3.64027 10.9732 4.02815L11.4348 3.83584ZM9.368 2.494C7.1475 2.494 5.57209 4.26913 4.51918 6.33863C3.45864 8.42315 2.87645 10.9009 2.67593 12.505L3.17207 12.567C3.36756 11.0031 3.93736 8.58485 4.96482 6.56536C5.99991 4.53087 7.4485 2.994 9.368 2.994V2.494ZM2.67629 12.5022C2.34864 14.905 2.42034 17.46 3.07907 19.8387L3.56093 19.7053C2.92366 17.404 2.85136 14.919 3.17171 12.5698L2.67629 12.5022ZM3.08106 19.8455C3.30155 20.5621 3.69833 21.5434 4.27275 22.3514C4.84203 23.1521 5.62722 23.838 6.632 23.838V23.338C5.87278 23.338 5.21797 22.8179 4.68025 22.0616C4.14767 21.3126 3.77045 20.3859 3.55894 19.6985L3.08106 19.8455ZM6.632 23.838C7.88192 23.838 8.91812 23.0068 9.72858 22.0086C10.5448 21.0033 11.1762 19.7746 11.6094 18.8722L11.1586 18.6558C10.7278 19.5534 10.1172 20.7367 9.34042 21.6934C8.55788 22.6572 7.65008 23.338 6.632 23.338V23.838ZM11.6076 18.8758C11.7754 18.5402 12.1128 18.366 12.464 18.366V17.866C11.9512 17.866 11.4246 18.1238 11.1604 18.6522L11.6076 18.8758ZM12.464 18.366C12.6299 18.366 12.8088 18.4224 12.9832 18.4921L13.1688 18.0279C12.9832 17.9536 12.7301 17.866 12.464 17.866V18.366ZM12.9703 18.4865C13.1698 18.5796 13.3368 18.7742 13.4265 19.0171C13.5159 19.2592 13.519 19.5243 13.423 19.7438L13.881 19.9442C14.037 19.5877 14.0221 19.1868 13.8955 18.8439C13.7692 18.5018 13.5222 18.1924 13.1817 18.0335L12.9703 18.4865ZM19.2441 25.82L19.455 25.9542L19.4604 25.9458L19.465 25.937L19.2441 25.82ZM16.9761 25.604L17.2134 25.5249L17.2102 25.5162L16.9761 25.604ZM17.0841 22.04L16.8346 22.0234L16.8345 22.0253L17.0841 22.04ZM16.5081 14.336L16.2592 14.3597L16.2593 14.3609L16.5081 14.336ZM16.0041 9.044L15.7559 9.01297L15.7551 9.02137L16.0041 9.044ZM18.5241 8.972L18.7668 8.91131L18.7639 8.90146L18.5241 8.972ZM18.5241 9.476H18.2741V9.4838L18.2746 9.49159L18.5241 9.476ZM19.0281 14.3L18.7785 14.3147L19.2597 14.3941L19.0281 14.3ZM20.9361 11.06L20.7467 10.8967L20.7423 10.9021L20.9361 11.06ZM27.2361 8.792L27.4779 8.72837L27.477 8.72509L27.2361 8.792ZM26.1921 10.304L26.2231 10.5521L26.2322 10.5509L26.2411 10.5491L26.1921 10.304ZM25.3281 10.664L25.2162 10.4401L25.2057 10.446L25.3281 10.664ZM20.7921 16.928L20.5533 16.8536L20.5509 16.8622L20.7921 16.928ZM19.0332 25.6858C18.8273 26.0093 18.475 26.182 18.1641 26.182V26.682C18.6452 26.682 19.1569 26.4227 19.455 25.9542L19.0332 25.6858ZM18.1641 26.182C17.7502 26.182 17.354 25.9472 17.2133 25.5249L16.7389 25.6831C16.9582 26.3408 17.57 26.682 18.1641 26.682V26.182ZM17.2102 25.5162C17.1737 25.4191 17.1496 25.2049 17.1468 24.8879C17.144 24.5839 17.1604 24.221 17.185 23.8521C17.2096 23.484 17.242 23.1141 17.2706 22.7965C17.299 22.4821 17.3244 22.2128 17.3337 22.0547L16.8345 22.0253C16.8258 22.1732 16.8017 22.4304 16.7727 22.7516C16.744 23.0697 16.7111 23.4445 16.6861 23.8189C16.6612 24.1925 16.6439 24.5699 16.6468 24.8924C16.6496 25.2021 16.6704 25.5009 16.742 25.6918L17.2102 25.5162ZM17.3335 22.0566C17.3528 21.7677 17.3311 21.2019 17.2892 20.5172C17.2468 19.826 17.1825 18.9958 17.1127 18.167C16.9731 16.5092 16.8109 14.8517 16.7569 14.3111L16.2593 14.3609C16.3133 14.9003 16.4751 16.5548 16.6145 18.209C16.6842 19.0362 16.7481 19.862 16.7901 20.5478C16.8325 21.2401 16.8514 21.7723 16.8346 22.0234L17.3335 22.0566ZM16.757 14.3123C16.7208 13.933 16.5755 12.7959 16.4506 11.6758C16.3876 11.1119 16.3295 10.549 16.2915 10.0786C16.2529 9.60009 16.2374 9.23949 16.2531 9.06663L15.7551 9.02137C15.7348 9.24451 15.7553 9.64891 15.7932 10.1188C15.8317 10.5968 15.8905 11.1656 15.9536 11.7312C16.0807 12.8701 16.2233 13.983 16.2592 14.3597L16.757 14.3123ZM16.2522 9.07501C16.2793 8.85827 16.4043 8.64105 16.5923 8.47568C16.7802 8.31024 17.0115 8.214 17.2281 8.214V7.714C16.8687 7.714 16.5239 7.86976 16.2619 8.10032C15.9999 8.33095 15.8009 8.65373 15.756 9.01299L16.2522 9.07501ZM17.2281 8.214C17.6889 8.214 18.1343 8.53272 18.2843 9.04254L18.7639 8.90146C18.5539 8.18727 17.9193 7.714 17.2281 7.714V8.214ZM18.2816 9.03263C18.2899 9.06607 18.2923 9.11524 18.2879 9.19736C18.2843 9.26632 18.2741 9.37795 18.2741 9.476H18.7741C18.7741 9.39405 18.7819 9.32568 18.7872 9.22364C18.7919 9.13476 18.7943 9.02193 18.7666 8.91137L18.2816 9.03263ZM18.2746 9.49159C18.2931 9.78745 18.4112 10.8501 18.5276 11.902C18.6452 12.965 18.761 14.0171 18.7785 14.3147L19.2777 14.2853C19.2592 13.9709 19.141 12.899 19.0246 11.847C18.907 10.7839 18.7911 9.74055 18.7736 9.46041L18.2746 9.49159ZM19.2597 14.3941C19.7189 13.2638 20.3545 12.1696 21.1299 11.2179L20.7423 10.9021C19.9337 11.8944 19.2733 13.0322 18.7965 14.2059L19.2597 14.3941ZM21.1254 11.2232C21.5619 10.7169 22.4117 9.91045 23.3342 9.23188C23.7948 8.89307 24.2677 8.59051 24.7112 8.37365C25.1593 8.15451 25.5552 8.034 25.8681 8.034V7.534C25.443 7.534 24.9659 7.69248 24.4915 7.92448C24.0125 8.15874 23.5133 8.47943 23.038 8.82911C22.0885 9.52754 21.2103 10.3591 20.7467 10.8968L21.1254 11.2232ZM25.8681 8.034C26.3835 8.034 26.8493 8.33357 26.9952 8.85891L27.477 8.72509C27.2629 7.95443 26.5767 7.534 25.8681 7.534V8.034ZM26.9943 8.85562C27.1309 9.37479 26.7493 9.93761 26.1431 10.0589L26.2411 10.5491C27.0749 10.3824 27.7012 9.57721 27.4779 8.72838L26.9943 8.85562ZM26.1611 10.0559C25.9787 10.0787 25.8069 10.1455 25.654 10.2171C25.5103 10.2845 25.3414 10.3778 25.2163 10.4404L25.4399 10.8876C25.6028 10.8062 25.7219 10.7375 25.8662 10.6699C26.0013 10.6065 26.1175 10.5653 26.2231 10.5521L26.1611 10.0559ZM25.2057 10.446C22.4977 11.967 21.426 14.0539 20.5534 16.8536L21.0308 17.0024C21.8861 14.2581 22.9025 12.313 25.4505 10.882L25.2057 10.446ZM20.5509 16.8622C20.4426 17.2593 20.1449 18.3688 19.8742 19.4835C19.7388 20.0406 19.6097 20.6011 19.5143 21.0755C19.4206 21.5412 19.3541 21.948 19.3541 22.184H19.8541C19.8541 22.006 19.9091 21.6478 20.0044 21.1741C20.098 20.7091 20.2254 20.1559 20.36 19.6015C20.6293 18.4932 20.9256 17.3887 21.0333 16.9938L20.5509 16.8622ZM19.3541 22.184C19.3541 22.5231 19.3451 23.2731 19.2961 24.0125C19.2716 24.3824 19.2373 24.7456 19.19 25.0516C19.1411 25.3673 19.0826 25.5907 19.0231 25.703L19.465 25.937C19.5676 25.7433 19.6351 25.4447 19.6841 25.1281C19.7346 24.8019 19.7701 24.4226 19.795 24.0455C19.8451 23.2909 19.8541 22.5289 19.8541 22.184H19.3541ZM40.2031 19.7L40.4403 19.7791L40.4433 19.7699L40.4457 19.7606L40.2031 19.7ZM31.0231 26.252L31.1129 26.0186L31.1072 26.0166L31.0231 26.252ZM27.7831 21.32L27.5354 21.3536L27.5357 21.356L27.7831 21.32ZM28.7191 12.644L28.4826 12.5629L28.4816 12.5659L28.7191 12.644ZM36.3151 7.712L36.4587 7.50691L36.4476 7.5L36.3151 7.712ZM36.3871 15.344L36.2032 15.1747L36.2026 15.1753L36.3871 15.344ZM30.1951 17.684L30.2558 17.4415L29.9741 17.371L29.9463 17.6601L30.1951 17.684ZM31.7791 23.84L31.899 23.6203L31.889 23.6154L31.7791 23.84ZM33.0751 23.948L33.0301 23.7021L33.0222 23.7035L33.0145 23.7055L33.0751 23.948ZM38.0791 18.08L38.3192 18.1497L38.3222 18.1395L38.3243 18.129L38.0791 18.08ZM40.5271 18.656L40.7697 18.7166L40.7745 18.6974L40.7762 18.6777L40.5271 18.656ZM30.6631 15.056L30.4184 15.0048L30.3876 15.1519L30.5031 15.2481L30.6631 15.056ZM35.4151 12.212L35.6466 12.307L35.6497 12.2984L35.4151 12.212ZM35.1991 10.088L34.9908 10.2269L34.9991 10.238L35.1991 10.088ZM39.966 19.6209C39.4558 21.1516 38.468 22.8273 37.1653 24.1168C35.8617 25.4071 34.2653 26.29 32.5351 26.29V26.79C34.4409 26.79 36.1565 25.8189 37.517 24.4722C38.8782 23.1247 39.9065 21.3804 40.4403 19.7791L39.966 19.6209ZM32.5351 26.29C32.0292 26.29 31.5556 26.1889 31.1129 26.0187L30.9334 26.4853C31.4266 26.6751 31.961 26.79 32.5351 26.79V26.29ZM31.1072 26.0166C29.2285 25.3456 28.3152 23.2411 28.0305 21.284L27.5357 21.356C27.8271 23.3589 28.7857 25.7184 30.939 26.4874L31.1072 26.0166ZM28.0309 21.2864C27.641 18.4159 28.0656 15.4307 28.9566 12.7221L28.4816 12.5659C27.5726 15.3293 27.1332 18.3921 27.5354 21.3536L28.0309 21.2864ZM28.9556 12.7251C29.3822 11.4808 30.0173 10.1369 30.9063 9.10849C31.792 8.08377 32.9162 7.386 34.3351 7.386V6.886C32.73 6.886 31.4782 7.68223 30.528 8.78151C29.5809 9.87712 28.92 11.2872 28.4826 12.5629L28.9556 12.7251ZM34.3351 7.386C34.9702 7.386 35.6446 7.58771 36.1826 7.924L36.4476 7.5C35.8337 7.11629 35.0681 6.886 34.3351 6.886V7.386ZM36.1718 7.91681C37.3532 8.74379 37.8634 9.99956 37.8292 11.3326C37.7949 12.6713 37.2096 14.0816 36.2032 15.1747L36.571 15.5133C37.6527 14.3384 38.2914 12.8147 38.329 11.3454C38.3669 9.87044 37.7971 8.44421 36.4585 7.50719L36.1718 7.91681ZM36.2026 15.1753C35.6443 15.786 34.8916 16.3988 34.0612 16.8577C33.2293 17.3174 32.3354 17.614 31.4911 17.614V18.114C32.4469 18.114 33.4249 17.7806 34.303 17.2953C35.1827 16.8092 35.978 16.162 36.5716 15.5127L36.2026 15.1753ZM31.4911 17.614C31.0864 17.614 30.6759 17.5465 30.2558 17.4415L30.1345 17.9265C30.5784 18.0375 31.0319 18.114 31.4911 18.114V17.614ZM29.9463 17.6601C29.855 18.6094 29.8267 19.9652 30.0388 21.1959C30.1448 21.8114 30.3127 22.4064 30.5702 22.9065C30.828 23.407 31.1831 23.8267 31.6692 24.0646L31.889 23.6154C31.5291 23.4393 31.2408 23.1165 31.0148 22.6776C30.7885 22.2383 30.6325 21.6971 30.5315 21.1111C30.3295 19.9388 30.3553 18.6306 30.444 17.7079L29.9463 17.6601ZM31.6594 24.0595C32.1295 24.3159 32.6677 24.3075 33.1358 24.1905L33.0145 23.7055C32.6185 23.8045 32.2208 23.7961 31.8988 23.6205L31.6594 24.0595ZM33.1202 24.1939C34.486 23.9438 35.6238 22.9793 36.4923 21.8259C37.3635 20.6689 37.988 19.2906 38.3192 18.1497L37.839 18.0103C37.5223 19.1014 36.9227 20.4231 36.0929 21.5251C35.2604 22.6307 34.2203 23.4842 33.0301 23.7021L33.1202 24.1939ZM38.3243 18.129C38.3632 17.9342 38.4894 17.7599 38.6699 17.6309C38.8514 17.5013 39.0712 17.43 39.2671 17.43V16.93C38.959 16.93 38.6388 17.0387 38.3793 17.2241C38.1189 17.4101 37.903 17.6858 37.834 18.031L38.3243 18.129ZM39.2671 17.43C39.8309 17.43 40.3382 17.9427 40.2781 18.6343L40.7762 18.6777C40.86 17.7133 40.1433 16.93 39.2671 16.93V17.43ZM40.2846 18.5954C40.2692 18.6571 40.2011 18.8702 40.127 19.1018C40.0571 19.3202 39.9812 19.5571 39.9606 19.6394L40.4457 19.7606C40.4611 19.6989 40.5291 19.4858 40.6032 19.2542C40.6731 19.0358 40.7491 18.7989 40.7697 18.7166L40.2846 18.5954ZM30.5031 15.2481C30.7629 15.4646 31.1072 15.594 31.4551 15.594V15.094C31.227 15.094 30.9954 15.0074 30.8232 14.8639L30.5031 15.2481ZM31.4551 15.594C32.3663 15.594 33.2682 15.122 34.0025 14.4946C34.7395 13.8649 35.3414 13.0505 35.6464 12.3069L35.1838 12.1171C34.9129 12.7775 34.3628 13.5291 33.6777 14.1144C32.9901 14.702 32.2 15.094 31.4551 15.094V15.594ZM35.6497 12.2984C35.9226 11.5578 35.8951 10.5993 35.3991 9.938L34.9991 10.238C35.3671 10.7287 35.4117 11.4982 35.1805 12.1256L35.6497 12.2984ZM35.4071 9.94932C35.1391 9.54727 34.732 9.37 34.2991 9.37V9.87C34.5863 9.87 34.8271 9.98073 34.9911 10.2267L35.4071 9.94932ZM34.2991 9.37C33.7094 9.37 33.192 9.6552 32.7541 10.0702C32.3167 10.4848 31.9406 11.0452 31.6256 11.6406C30.9956 12.8317 30.5839 14.2141 30.4184 15.0048L30.9078 15.1072C31.0663 14.3499 31.4647 13.0143 32.0676 11.8744C32.3692 11.3043 32.7153 10.7959 33.098 10.4331C33.4803 10.0708 33.8809 9.87 34.2991 9.87V9.37ZM51.9172 19.232L52.1647 19.1966L51.6811 19.1497L51.9172 19.232ZM43.7452 25.136L43.927 24.9643L43.922 24.9592L43.7452 25.136ZM44.1412 11.672L43.9239 11.5483L43.9224 11.5509L44.1412 11.672ZM53.1412 8.288L53.318 8.11122L53.3104 8.10366L53.3022 8.09677L53.1412 8.288ZM53.4652 8.396L53.5722 8.17006L53.5214 8.146H53.4652V8.396ZM54.1852 10.736L54.4333 10.7675L54.4341 10.7597L54.1852 10.736ZM54.2212 17.612L54.4697 17.585L54.4697 17.5844L54.2212 17.612ZM56.0212 23.948L55.8342 24.1142L55.841 24.1213L56.0212 23.948ZM54.6892 26L54.6156 26.2393L54.6286 26.2425L54.6892 26ZM53.3212 24.38L53.5482 24.2752L53.5477 24.2743L53.3212 24.38ZM45.1492 22.94L44.9368 23.0718L44.9383 23.0742L45.1492 22.94ZM46.7692 23.48L46.6255 23.2752L46.6192 23.28L46.7692 23.48ZM51.6292 10.304L51.3864 10.2433L51.384 10.255L51.6292 10.304ZM51.1972 10.124L51.2462 9.87885L51.2386 9.87734L51.231 9.87629L51.1972 10.124ZM48.7852 10.376L48.8873 10.6043L48.8927 10.6017L48.7852 10.376ZM44.5012 19.268L44.2515 19.2545L44.2513 19.2609L44.5012 19.268ZM51.6811 19.1497C51.267 20.3382 50.6449 22.0411 49.7532 23.445C48.8547 24.8593 47.7319 25.894 46.3372 25.894V26.394C48.0025 26.394 49.2557 25.1607 50.1752 23.713C51.1014 22.2549 51.7394 20.5018 52.1533 19.3143L51.6811 19.1497ZM46.3372 25.894C45.4173 25.894 44.4813 25.5514 43.9269 24.9643L43.5634 25.3077C44.233 26.0166 45.3131 26.394 46.3372 26.394V25.894ZM43.922 24.9592C42.4885 23.5258 42.0705 21.1807 42.2887 18.6823C42.5061 16.1935 43.3505 13.6172 44.3599 11.793L43.9224 11.5509C42.8799 13.4348 42.0143 16.0785 41.7906 18.6387C41.5679 21.1893 41.9779 23.7222 43.5684 25.3128L43.922 24.9592ZM44.3584 11.7957C45.0851 10.5197 45.8988 9.52822 46.8915 8.8549C47.8806 8.18402 49.0635 7.818 50.5492 7.818V7.318C48.9748 7.318 47.6917 7.70798 46.6109 8.4411C45.5336 9.17177 44.6733 10.2323 43.9239 11.5483L44.3584 11.7957ZM50.5492 7.818C51.4022 7.818 52.3678 7.96353 52.9802 8.47923L53.3022 8.09677C52.5466 7.46047 51.4242 7.318 50.5492 7.318V7.818ZM52.9644 8.46478C52.9929 8.49329 53.0236 8.51155 53.0386 8.52014C53.0575 8.53091 53.0771 8.54036 53.0949 8.54831C53.1308 8.56434 53.1714 8.57959 53.2106 8.59267C53.2501 8.60583 53.2923 8.61815 53.3317 8.62748C53.3657 8.63552 53.4165 8.646 53.4652 8.646V8.146C53.4746 8.146 53.4777 8.14694 53.4712 8.14592C53.4661 8.1451 53.4579 8.14353 53.4468 8.14089C53.4244 8.1356 53.3968 8.12767 53.3687 8.11833C53.3405 8.10891 53.3159 8.09941 53.2989 8.09181C53.2948 8.09001 53.2917 8.08852 53.2894 8.08739C53.287 8.08622 53.2861 8.08568 53.2864 8.08582C53.2864 8.08584 53.2891 8.08734 53.2934 8.09036C53.297 8.09292 53.3065 8.0998 53.318 8.11122L52.9644 8.46478ZM53.3582 8.62193C53.5917 8.73256 53.7657 9.02817 53.865 9.46004C53.9612 9.87802 53.9704 10.3542 53.9363 10.7123L54.4341 10.7597C54.472 10.3618 54.4632 9.82998 54.3523 9.34796C54.2447 8.87983 54.0227 8.38343 53.5722 8.17006L53.3582 8.62193ZM53.9372 10.7045C53.6459 12.9981 53.7193 15.359 53.9727 17.6396L54.4697 17.5844C54.2191 15.329 54.1484 13.0099 54.4332 10.7675L53.9372 10.7045ZM53.9727 17.639C54.063 18.4706 54.2263 19.7422 54.5132 20.9718C54.7969 22.1874 55.2124 23.4144 55.8343 24.1141L56.208 23.7819C55.678 23.1856 55.2835 22.0726 55.0001 20.8582C54.7201 19.6578 54.5593 18.4094 54.4697 17.585L53.9727 17.639ZM55.841 24.1213C56.2035 24.4982 56.1949 24.9626 55.969 25.3103C55.7411 25.6612 55.2898 25.8925 54.7498 25.7575L54.6286 26.2425C55.3846 26.4315 56.0492 26.1048 56.3883 25.5827C56.7295 25.0574 56.7389 24.3338 56.2014 23.7747L55.841 24.1213ZM54.7627 25.7611C54.6991 25.7415 54.6017 25.6815 54.4772 25.5676C54.3574 25.4579 54.2307 25.3151 54.1077 25.1576C53.8605 24.841 53.6465 24.4883 53.5482 24.2752L53.0942 24.4848C53.2118 24.7397 53.4479 25.125 53.7136 25.4654C53.8472 25.6364 53.9927 25.8019 54.1395 25.9363C54.2817 26.0665 54.4453 26.1865 54.6157 26.2389L54.7627 25.7611ZM53.5477 24.2743C52.8065 22.6859 52.415 20.9491 52.1647 19.1966L51.6697 19.2674C51.9233 21.0429 52.3239 22.8341 53.0946 24.4857L53.5477 24.2743ZM44.9383 23.0742C45.216 23.5106 45.7159 23.91 46.2652 23.91V23.41C45.9505 23.41 45.5864 23.1614 45.3601 22.8058L44.9383 23.0742ZM46.2652 23.91C46.5097 23.91 46.7411 23.8136 46.9192 23.68L46.6192 23.28C46.5093 23.3624 46.3806 23.41 46.2652 23.41V23.91ZM46.9128 23.6847C47.572 23.2222 48.1641 22.3158 48.6904 21.2207C49.2217 20.1155 49.704 18.7783 50.1265 17.4113C50.9718 14.6765 51.5858 11.7956 51.8743 10.353L51.384 10.255C51.0966 11.6924 50.4865 14.5535 49.6488 17.2637C49.2299 18.6192 48.7559 19.9303 48.2398 21.0041C47.7188 22.0882 47.1724 22.8918 46.6256 23.2753L46.9128 23.6847ZM51.8717 10.3646C51.8861 10.3071 51.8876 10.2413 51.8647 10.1748C51.8421 10.1094 51.8021 10.0617 51.7631 10.0288C51.6928 9.96973 51.6077 9.94419 51.5548 9.93096C51.4956 9.91615 51.4318 9.90674 51.3807 9.89952C51.3241 9.89153 51.2822 9.88605 51.2462 9.87885L51.1482 10.3691C51.2022 10.3799 51.2638 10.388 51.3107 10.3946C51.3631 10.402 51.4028 10.4084 51.4336 10.416C51.4706 10.4253 51.4621 10.429 51.4413 10.4115C51.427 10.3995 51.4051 10.3757 51.392 10.338C51.3786 10.2992 51.3813 10.2649 51.3867 10.2434L51.8717 10.3646ZM51.231 9.87629C50.421 9.76584 49.4988 9.75926 48.6777 10.1503L48.8927 10.6017C49.5835 10.2727 50.3894 10.2662 51.1634 10.3717L51.231 9.87629ZM48.6831 10.1478C47.2232 10.8009 46.1565 12.4365 45.4398 14.1873C44.7183 15.95 44.3251 17.8944 44.2516 19.2545L44.7508 19.2815C44.8213 17.9776 45.2021 16.088 45.9026 14.3767C46.6079 12.6535 47.6112 11.1751 48.8873 10.6042L48.6831 10.1478ZM44.2513 19.2609C44.2154 20.5157 44.2444 21.9564 44.9368 23.0718L45.3616 22.8082C44.7579 21.8356 44.7149 20.5403 44.7511 19.2751L44.2513 19.2609ZM67.0619 25.316L67.1789 25.5369L67.1853 25.5336L67.1915 25.5298L67.0619 25.316ZM61.3379 24.056L61.14 24.2089L61.1453 24.2154L61.3379 24.056ZM60.0779 21.284L59.8346 21.3416L59.8354 21.3446L60.0779 21.284ZM59.4659 10.916L59.7158 10.9238L59.7239 10.666H59.4659V10.916ZM57.6659 10.772L57.5205 10.9757L57.5308 10.9823L57.6659 10.772ZM57.7379 8.648L57.8651 8.86324L57.8666 8.86237L57.7379 8.648ZM59.5379 8.396V8.646H59.7751L59.7876 8.40914L59.5379 8.396ZM60.0059 4.004L59.7702 3.92078L59.7688 3.92494L60.0059 4.004ZM62.4179 4.832L62.1754 4.77137L62.1725 4.78285L62.1708 4.79455L62.4179 4.832ZM62.0579 8.432L61.8084 8.41732L61.7928 8.682H62.0579V8.432ZM64.6859 8.576L64.7261 8.32908L64.7169 8.32793L64.6859 8.576ZM64.5779 11.096L64.5605 10.8466L64.5486 10.8474L64.5368 10.8494L64.5779 11.096ZM63.9659 11.024L64.007 10.7773L64.0013 10.7765L63.9659 11.024ZM61.9859 10.952V10.702H61.7427L61.736 10.9452L61.9859 10.952ZM63.4619 22.652L63.2818 22.8254L63.2852 22.8288L63.4619 22.652ZM66.1979 22.976L66.1538 22.7299L66.1489 22.7309L66.1979 22.976ZM66.945 25.0951C66.3558 25.407 65.7484 25.606 65.1179 25.606V26.106C65.8554 26.106 66.5441 25.873 67.1789 25.5369L66.945 25.0951ZM65.1179 25.606C63.7922 25.606 62.3495 24.8862 61.5305 23.8966L61.1453 24.2154C62.0544 25.3139 63.6357 26.106 65.1179 26.106V25.606ZM61.5358 23.9031C60.9515 23.1471 60.5672 22.2104 60.3205 21.2234L59.8354 21.3446C60.0926 22.3736 60.5003 23.3809 61.1401 24.2089L61.5358 23.9031ZM60.3212 21.2264C59.538 17.9153 59.6077 14.3834 59.7158 10.9238L59.2161 10.9082C59.1082 14.3606 59.0339 17.9567 59.8347 21.3416L60.3212 21.2264ZM59.4659 10.666C59.3023 10.666 59.1358 10.678 58.9787 10.6898C58.8185 10.7017 58.668 10.7134 58.5218 10.7155C58.2279 10.7198 57.9909 10.6837 57.8011 10.5617L57.5308 10.9823C57.8449 11.1843 58.202 11.2202 58.5291 11.2155C58.6934 11.2131 58.8602 11.2 59.016 11.1884C59.175 11.1765 59.3236 11.166 59.4659 11.166V10.666ZM57.8112 10.5686C57.1974 10.1301 57.234 9.23619 57.8651 8.86323L57.6108 8.43277C56.6579 8.99581 56.6225 10.3339 57.5206 10.9754L57.8112 10.5686ZM57.8666 8.86237C58.0894 8.72865 58.3515 8.67093 58.6425 8.64985C58.9415 8.62818 59.23 8.646 59.5379 8.646V8.146C59.2699 8.146 58.9283 8.12782 58.6064 8.15115C58.2763 8.17507 57.9264 8.24335 57.6093 8.43363L57.8666 8.86237ZM59.7876 8.40914C59.8054 8.07063 59.8682 7.13788 59.9534 6.20935C59.996 5.74511 60.044 5.28413 60.0946 4.90008C60.1463 4.50772 60.1979 4.21869 60.2431 4.08306L59.7688 3.92494C59.706 4.1133 59.6496 4.44978 59.5989 4.83479C59.5471 5.22812 59.4984 5.69639 59.4555 6.16365C59.3697 7.09812 59.3065 8.03736 59.2883 8.38286L59.7876 8.40914ZM60.2417 4.0872C60.4206 3.58029 60.8264 3.354 61.2299 3.354V2.854C60.6255 2.854 60.0233 3.20371 59.7702 3.9208L60.2417 4.0872ZM61.2299 3.354C61.7591 3.354 62.2399 3.72853 62.2399 4.364H62.7399C62.7399 3.41546 61.9968 2.854 61.2299 2.854V3.354ZM62.2399 4.364C62.2399 4.50976 62.2116 4.6266 62.1754 4.77137L62.6605 4.89263C62.6963 4.7494 62.7399 4.57824 62.7399 4.364H62.2399ZM62.1708 4.79455C61.9893 5.99227 61.8807 7.18826 61.8084 8.41732L62.3075 8.44668C62.3792 7.22774 62.4866 6.04773 62.6651 4.86945L62.1708 4.79455ZM62.0579 8.682C62.9514 8.682 63.8045 8.71776 64.6549 8.82407L64.7169 8.32793C63.8394 8.21824 62.9644 8.182 62.0579 8.182V8.682ZM64.6458 8.82275C65.9 9.02693 65.8131 10.7592 64.5605 10.8466L64.5953 11.3454C66.4388 11.2168 66.5679 8.62907 64.7261 8.32925L64.6458 8.82275ZM64.5368 10.8494C64.4683 10.8608 64.4009 10.8564 64.3167 10.841C64.2731 10.8331 64.2292 10.8232 64.1765 10.8115C64.1257 10.8002 64.0682 10.7876 64.007 10.7774L63.9248 11.2706C63.9716 11.2784 64.0176 11.2883 64.0681 11.2995C64.1166 11.3103 64.1718 11.3229 64.2272 11.333C64.3409 11.3536 64.4716 11.3672 64.619 11.3426L64.5368 10.8494ZM64.0013 10.7765C63.8578 10.756 63.4073 10.7379 62.9837 10.7246C62.5518 10.7111 62.1163 10.702 61.9859 10.702V11.202C62.1076 11.202 62.5361 11.2109 62.9681 11.2244C63.4086 11.2381 63.8221 11.256 63.9306 11.2715L64.0013 10.7765ZM61.736 10.9452C61.7001 12.2557 61.6096 14.7161 61.7589 17.0877C61.8336 18.2734 61.9687 19.4454 62.2032 20.4456C62.4357 21.4368 62.7743 22.2979 63.2818 22.8253L63.6421 22.4787C63.2316 22.0521 62.9177 21.3022 62.69 20.3314C62.4645 19.3696 62.3318 18.2286 62.2579 17.0563C62.1103 14.7119 62.1997 12.2763 62.2358 10.9588L61.736 10.9452ZM63.2852 22.8288C63.7658 23.3094 64.4781 23.586 65.1179 23.586V23.086C64.6058 23.086 64.0221 22.8586 63.6387 22.4752L63.2852 22.8288ZM65.1179 23.586C65.3747 23.586 65.5977 23.4924 65.7762 23.41C65.9705 23.3203 66.1043 23.2497 66.247 23.2211L66.1489 22.7309C65.9316 22.7743 65.7234 22.8837 65.5667 22.956C65.3941 23.0356 65.2571 23.086 65.1179 23.086V23.586ZM66.2421 23.2221C66.8076 23.1206 67.213 23.438 67.3666 23.866C67.5215 24.2975 67.4101 24.8127 66.9324 25.1022L67.1915 25.5298C67.9018 25.0993 68.0603 24.3186 67.8372 23.697C67.6129 23.072 66.9922 22.5794 66.1538 22.7299L66.2421 23.2221ZM81.6172 19.7L81.8544 19.7791L81.8574 19.7699L81.8597 19.7606L81.6172 19.7ZM72.4372 26.252L72.527 26.0186L72.5213 26.0166L72.4372 26.252ZM69.1972 21.32L68.9494 21.3536L68.9498 21.356L69.1972 21.32ZM70.1332 12.644L69.8967 12.5629L69.8957 12.5659L70.1332 12.644ZM77.7292 7.712L77.8727 7.50691L77.8617 7.5L77.7292 7.712ZM77.8012 15.344L77.6173 15.1747L77.6167 15.1753L77.8012 15.344ZM71.6092 17.684L71.6698 17.4415L71.3881 17.371L71.3603 17.6601L71.6092 17.684ZM73.1932 23.84L73.313 23.6203L73.3031 23.6154L73.1932 23.84ZM74.4892 23.948L74.4442 23.7021L74.4363 23.7035L74.4286 23.7055L74.4892 23.948ZM79.4932 18.08L79.7333 18.1497L79.7362 18.1395L79.7383 18.129L79.4932 18.08ZM81.9412 18.656L82.1837 18.7166L82.1885 18.6974L82.1902 18.6777L81.9412 18.656ZM72.0772 15.056L71.8325 15.0048L71.8017 15.1519L71.9171 15.2481L72.0772 15.056ZM76.8292 12.212L77.0606 12.307L77.0638 12.2984L76.8292 12.212ZM76.6132 10.088L76.4049 10.2269L76.4132 10.238L76.6132 10.088ZM81.38 19.6209C80.8698 21.1516 79.8821 22.8273 78.5793 24.1168C77.2758 25.4071 75.6794 26.29 73.9492 26.29V26.79C75.855 26.79 77.5706 25.8189 78.9311 24.4722C80.2923 23.1247 81.3206 21.3804 81.8544 19.7791L81.38 19.6209ZM73.9492 26.29C73.4433 26.29 72.9697 26.1889 72.5269 26.0187L72.3474 26.4853C72.8407 26.6751 73.3751 26.79 73.9492 26.79V26.29ZM72.5213 26.0166C70.6426 25.3456 69.7293 23.2411 69.4446 21.284L68.9498 21.356C69.2411 23.3589 70.1998 25.7184 72.3531 26.4874L72.5213 26.0166ZM69.4449 21.2864C69.0551 18.4159 69.4797 15.4307 70.3707 12.7221L69.8957 12.5659C68.9867 15.3293 68.5473 18.3921 68.9495 21.3536L69.4449 21.2864ZM70.3697 12.7251C70.7963 11.4808 71.4314 10.1369 72.3203 9.10849C73.2061 8.08377 74.3303 7.386 75.7492 7.386V6.886C74.1441 6.886 72.8923 7.68223 71.9421 8.78151C70.995 9.87712 70.3341 11.2872 69.8967 12.5629L70.3697 12.7251ZM75.7492 7.386C76.3843 7.386 77.0586 7.58771 77.5967 7.924L77.8617 7.5C77.2477 7.11629 76.4821 6.886 75.7492 6.886V7.386ZM77.5858 7.91681C78.7672 8.74379 79.2775 9.99956 79.2433 11.3326C79.2089 12.6713 78.6236 14.0816 77.6173 15.1747L77.9851 15.5133C79.0668 14.3384 79.7054 12.8147 79.7431 11.3454C79.7809 9.87044 79.2112 8.44421 77.8726 7.50719L77.5858 7.91681ZM77.6167 15.1753C77.0583 15.786 76.3056 16.3988 75.4753 16.8577C74.6434 17.3174 73.7494 17.614 72.9052 17.614V18.114C73.861 18.114 74.839 17.7806 75.7171 17.2953C76.5968 16.8092 77.3921 16.162 77.9857 15.5127L77.6167 15.1753ZM72.9052 17.614C72.5004 17.614 72.0899 17.5465 71.6698 17.4415L71.5486 17.9265C71.9925 18.0375 72.4459 18.114 72.9052 18.114V17.614ZM71.3603 17.6601C71.2691 18.6094 71.2408 19.9652 71.4528 21.1959C71.5589 21.8114 71.7268 22.4064 71.9843 22.9065C72.242 23.407 72.5972 23.8267 73.0833 24.0646L73.3031 23.6154C72.9432 23.4393 72.6549 23.1165 72.4288 22.6776C72.2026 22.2383 72.0465 21.6971 71.9456 21.1111C71.7436 19.9388 71.7693 18.6306 71.858 17.7079L71.3603 17.6601ZM73.0735 24.0595C73.5435 24.3159 74.0818 24.3075 74.5498 24.1905L74.4286 23.7055C74.0326 23.8045 73.6348 23.7961 73.3129 23.6205L73.0735 24.0595ZM74.5342 24.1939C75.9 23.9438 77.0379 22.9793 77.9064 21.8259C78.7776 20.6689 79.402 19.2906 79.7333 18.1497L79.2531 18.0103C78.9363 19.1014 78.3368 20.4231 77.507 21.5251C76.6745 22.6307 75.6344 23.4842 74.4442 23.7021L74.5342 24.1939ZM79.7383 18.129C79.7773 17.9342 79.9034 17.7599 80.084 17.6309C80.2655 17.5013 80.4853 17.43 80.6812 17.43V16.93C80.3731 16.93 80.0529 17.0387 79.7934 17.2241C79.533 17.4101 79.3171 17.6858 79.248 18.031L79.7383 18.129ZM80.6812 17.43C81.245 17.43 81.7523 17.9427 81.6921 18.6343L82.1902 18.6777C82.2741 17.7133 81.5574 16.93 80.6812 16.93V17.43ZM81.6987 18.5954C81.6832 18.6571 81.6152 18.8702 81.5411 19.1018C81.4712 19.3202 81.3952 19.5571 81.3746 19.6394L81.8597 19.7606C81.8752 19.6989 81.9432 19.4858 82.0173 19.2542C82.0872 19.0358 82.1632 18.7989 82.1837 18.7166L81.6987 18.5954ZM71.9171 15.2481C72.177 15.4646 72.5213 15.594 72.8692 15.594V15.094C72.6411 15.094 72.4094 15.0074 72.2372 14.8639L71.9171 15.2481ZM72.8692 15.594C73.7803 15.594 74.6822 15.122 75.4166 14.4946C76.1536 13.8649 76.7554 13.0505 77.0605 12.3069L76.5979 12.1171C76.327 12.7775 75.7768 13.5291 75.0918 14.1144C74.4041 14.702 73.6141 15.094 72.8692 15.094V15.594ZM77.0638 12.2984C77.3366 11.5578 77.3092 10.5993 76.8132 9.938L76.4132 10.238C76.7812 10.7287 76.8257 11.4982 76.5946 12.1256L77.0638 12.2984ZM76.8212 9.94932C76.5532 9.54727 76.146 9.37 75.7132 9.37V9.87C76.0004 9.87 76.2412 9.98073 76.4052 10.2267L76.8212 9.94932ZM75.7132 9.37C75.1235 9.37 74.606 9.6552 74.1681 10.0702C73.7308 10.4848 73.3546 11.0452 73.0397 11.6406C72.4096 12.8317 71.998 14.2141 71.8325 15.0048L72.3219 15.1072C72.4804 14.3499 72.8787 13.0143 73.4817 11.8744C73.7832 11.3043 74.1294 10.7959 74.5121 10.4331C74.8944 10.0708 75.2949 9.87 75.7132 9.87V9.37ZM106.183 19.844L105.954 19.7438L105.954 19.7448L106.183 19.844ZM96.2832 25.064L96.4361 24.8662L96.4353 24.8656L96.2832 25.064ZM94.2312 7.1L93.9972 7.01222L94.2312 7.1ZM104.095 0.763999L104.21 0.541662L104.207 0.540392L104.095 0.763999ZM105.787 8.108L105.562 8L105.56 8.00455L105.787 8.108ZM103.519 7.064L103.749 7.16371L103.751 7.15832L103.519 7.064ZM103.735 3.932L103.967 3.83767L103.966 3.83584L103.735 3.932ZM95.4553 12.536L95.703 12.5698L95.7033 12.567L95.4553 12.536ZM95.8512 19.772L95.6102 19.8387L95.6123 19.8455L95.8512 19.772ZM103.915 18.764L103.692 18.6522L103.69 18.6558L103.915 18.764ZM105.607 18.26L105.713 18.0331L105.7 18.0279L105.607 18.26ZM105.954 19.7448C105.331 21.186 104.446 22.7127 103.292 23.8754C102.14 25.036 100.734 25.822 99.0553 25.822V26.322C100.905 26.322 102.432 25.452 103.647 24.2276C104.86 23.0053 105.775 21.418 106.413 19.9432L105.954 19.7448ZM99.0553 25.822C98.1476 25.822 97.1921 25.4503 96.4361 24.8662L96.1304 25.2618C96.9584 25.9017 98.0189 26.322 99.0553 26.322V25.822ZM96.4353 24.8656C95.1062 23.8472 94.2461 22.2729 93.719 20.532C93.1925 18.7933 93.0052 16.911 93.0052 15.308H92.5052C92.5052 16.945 92.696 18.8787 93.2405 20.677C93.7844 22.4731 94.6883 24.1568 96.1312 25.2624L96.4353 24.8656ZM93.0052 15.308C93.0052 12.5653 93.5041 9.75105 94.4653 7.18778L93.9972 7.01222C93.0144 9.63295 92.5052 12.5067 92.5052 15.308H93.0052ZM94.4653 7.18778C95.0512 5.62541 95.9718 3.93844 97.2023 2.64641C98.4314 1.3558 99.9542 0.473999 101.755 0.473999V-0.026001C99.7763 -0.026001 98.1311 0.946199 96.8402 2.30159C95.5507 3.65556 94.5993 5.40659 93.9972 7.01222L94.4653 7.18778ZM101.755 0.473999C102.546 0.473999 103.3 0.64585 103.983 0.987605L104.207 0.540392C103.451 0.162148 102.62 -0.026001 101.755 -0.026001V0.473999ZM103.981 0.98632C105.158 1.59155 105.85 2.71354 106.1 4.0108C106.35 5.31058 106.152 6.76829 105.562 8.00002L106.013 8.21598C106.647 6.89171 106.862 5.32541 106.591 3.9162C106.319 2.50446 105.553 1.23245 104.21 0.541677L103.981 0.98632ZM105.56 8.00455C105.496 8.1456 105.366 8.28186 105.195 8.38413C105.025 8.48615 104.835 8.542 104.671 8.542V9.042C104.939 9.042 105.217 8.95385 105.452 8.81287C105.687 8.67214 105.899 8.4664 106.015 8.21145L105.56 8.00455ZM104.671 8.542C104.005 8.542 103.467 7.8103 103.749 7.16368L103.29 6.96432C102.851 7.9737 103.681 9.042 104.671 9.042V8.542ZM103.751 7.15832C104.156 6.16308 104.399 4.89925 103.967 3.83767L103.504 4.02632C103.863 4.90875 103.674 6.02092 103.288 6.96968L103.751 7.15832ZM103.966 3.83584C103.768 3.35973 103.473 3.01887 103.108 2.79963C102.745 2.58186 102.329 2.494 101.899 2.494V2.994C102.262 2.994 102.584 3.06814 102.851 3.22837C103.115 3.38713 103.343 3.64027 103.504 4.02815L103.966 3.83584ZM101.899 2.494C99.6787 2.494 98.1033 4.26913 97.0504 6.33863C95.9899 8.42315 95.4077 10.9009 95.2072 12.505L95.7033 12.567C95.8988 11.0031 96.4686 8.58485 97.4961 6.56536C98.5312 4.53087 99.9798 2.994 101.899 2.994V2.494ZM95.2075 12.5022C94.8799 14.905 94.9516 17.46 95.6103 19.8387L96.0922 19.7053C95.4549 17.404 95.3826 14.919 95.703 12.5698L95.2075 12.5022ZM95.6123 19.8455C95.8328 20.5621 96.2296 21.5434 96.804 22.3514C97.3733 23.1521 98.1585 23.838 99.1633 23.838V23.338C98.404 23.338 97.7492 22.8179 97.2115 22.0616C96.6789 21.3126 96.3017 20.3859 96.0902 19.6985L95.6123 19.8455ZM99.1633 23.838C100.413 23.838 101.449 23.0068 102.26 22.0086C103.076 21.0033 103.707 19.7746 104.141 18.8722L103.69 18.6558C103.259 19.5534 102.648 20.7367 101.872 21.6934C101.089 22.6572 100.181 23.338 99.1633 23.338V23.838ZM104.139 18.8758C104.307 18.5402 104.644 18.366 104.995 18.366V17.866C104.482 17.866 103.956 18.1238 103.692 18.6522L104.139 18.8758ZM104.995 18.366C105.161 18.366 105.34 18.4224 105.514 18.4921L105.7 18.0279C105.514 17.9536 105.261 17.866 104.995 17.866V18.366ZM105.502 18.4865C105.701 18.5796 105.868 18.7742 105.958 19.0171C106.047 19.2592 106.05 19.5243 105.954 19.7438L106.412 19.9442C106.568 19.5877 106.553 19.1868 106.427 18.8439C106.3 18.5018 106.053 18.1924 105.713 18.0335L105.502 18.4865ZM118.327 19.232L118.575 19.1966L118.091 19.1497L118.327 19.232ZM110.155 25.136L110.337 24.9643L110.332 24.9592L110.155 25.136ZM110.551 11.672L110.334 11.5483L110.333 11.5509L110.551 11.672ZM119.551 8.288L119.728 8.11122L119.721 8.10366L119.712 8.09677L119.551 8.288ZM119.875 8.396L119.982 8.17006L119.932 8.146H119.875V8.396ZM120.595 10.736L120.843 10.7675L120.844 10.7597L120.595 10.736ZM120.631 17.612L120.88 17.585L120.88 17.5844L120.631 17.612ZM122.431 23.948L122.244 24.1142L122.251 24.1213L122.431 23.948ZM121.099 26L121.026 26.2393L121.039 26.2425L121.099 26ZM119.731 24.38L119.958 24.2752L119.958 24.2743L119.731 24.38ZM111.559 22.94L111.347 23.0718L111.348 23.0742L111.559 22.94ZM113.179 23.48L113.036 23.2752L113.029 23.28L113.179 23.48ZM118.039 10.304L117.797 10.2433L117.794 10.255L118.039 10.304ZM117.607 10.124L117.656 9.87885L117.649 9.87734L117.641 9.87629L117.607 10.124ZM115.195 10.376L115.297 10.6043L115.303 10.6017L115.195 10.376ZM110.911 19.268L110.662 19.2545L110.661 19.2609L110.911 19.268ZM118.091 19.1497C117.677 20.3382 117.055 22.0411 116.163 23.445C115.265 24.8593 114.142 25.894 112.747 25.894V26.394C114.413 26.394 115.666 25.1607 116.585 23.713C117.512 22.2549 118.15 20.5018 118.563 19.3143L118.091 19.1497ZM112.747 25.894C111.827 25.894 110.892 25.5514 110.337 24.9643L109.974 25.3077C110.643 26.0166 111.723 26.394 112.747 26.394V25.894ZM110.332 24.9592C108.899 23.5258 108.481 21.1807 108.699 18.6823C108.916 16.1935 109.761 13.6172 110.77 11.793L110.333 11.5509C109.29 13.4348 108.424 16.0785 108.201 18.6387C107.978 21.1893 108.388 23.7222 109.979 25.3128L110.332 24.9592ZM110.769 11.7957C111.495 10.5197 112.309 9.52822 113.302 8.8549C114.291 8.18402 115.474 7.818 116.959 7.818V7.318C115.385 7.318 114.102 7.70798 113.021 8.4411C111.944 9.17177 111.083 10.2323 110.334 11.5483L110.769 11.7957ZM116.959 7.818C117.812 7.818 118.778 7.96353 119.39 8.47923L119.712 8.09677C118.957 7.46047 117.834 7.318 116.959 7.318V7.818ZM119.375 8.46478C119.403 8.49329 119.434 8.51155 119.449 8.52014C119.468 8.53091 119.487 8.54036 119.505 8.54831C119.541 8.56434 119.582 8.57959 119.621 8.59267C119.66 8.60583 119.702 8.61815 119.742 8.62748C119.776 8.63552 119.827 8.646 119.875 8.646V8.146C119.885 8.146 119.888 8.14694 119.881 8.14592C119.876 8.1451 119.868 8.14353 119.857 8.14089C119.835 8.1356 119.807 8.12767 119.779 8.11833C119.751 8.10891 119.726 8.09941 119.709 8.09181C119.705 8.09001 119.702 8.08852 119.7 8.08739C119.697 8.08622 119.696 8.08568 119.697 8.08582C119.697 8.08584 119.699 8.08734 119.704 8.09036C119.707 8.09292 119.717 8.0998 119.728 8.11122L119.375 8.46478ZM119.768 8.62193C120.002 8.73256 120.176 9.02817 120.275 9.46004C120.371 9.87802 120.381 10.3542 120.346 10.7123L120.844 10.7597C120.882 10.3618 120.873 9.82998 120.762 9.34796C120.655 8.87983 120.433 8.38343 119.982 8.17006L119.768 8.62193ZM120.347 10.7045C120.056 12.9981 120.129 15.359 120.383 17.6396L120.88 17.5844C120.629 15.329 120.559 13.0099 120.843 10.7675L120.347 10.7045ZM120.383 17.639C120.473 18.4706 120.636 19.7422 120.923 20.9718C121.207 22.1874 121.623 23.4144 122.244 24.1141L122.618 23.7819C122.088 23.1856 121.694 22.0726 121.41 20.8582C121.13 19.6578 120.969 18.4094 120.88 17.585L120.383 17.639ZM122.251 24.1213C122.614 24.4982 122.605 24.9626 122.379 25.3103C122.151 25.6612 121.7 25.8925 121.16 25.7575L121.039 26.2425C121.795 26.4315 122.459 26.1048 122.799 25.5827C123.14 25.0574 123.149 24.3338 122.612 23.7747L122.251 24.1213ZM121.173 25.7611C121.109 25.7415 121.012 25.6815 120.887 25.5676C120.768 25.4579 120.641 25.3151 120.518 25.1576C120.271 24.841 120.057 24.4883 119.958 24.2752L119.504 24.4848C119.622 24.7397 119.858 25.125 120.124 25.4654C120.257 25.6364 120.403 25.8019 120.55 25.9363C120.692 26.0665 120.855 26.1865 121.026 26.2389L121.173 25.7611ZM119.958 24.2743C119.217 22.6859 118.825 20.9491 118.575 19.1966L118.08 19.2674C118.334 21.0429 118.734 22.8341 119.505 24.4857L119.958 24.2743ZM111.348 23.0742C111.626 23.5106 112.126 23.91 112.675 23.91V23.41C112.361 23.41 111.997 23.1614 111.77 22.8058L111.348 23.0742ZM112.675 23.91C112.92 23.91 113.151 23.8136 113.329 23.68L113.029 23.28C112.919 23.3624 112.791 23.41 112.675 23.41V23.91ZM113.323 23.6847C113.982 23.2222 114.574 22.3158 115.101 21.2207C115.632 20.1155 116.114 18.7783 116.537 17.4113C117.382 14.6765 117.996 11.7956 118.284 10.353L117.794 10.255C117.507 11.6924 116.897 14.5535 116.059 17.2637C115.64 18.6192 115.166 19.9303 114.65 21.0041C114.129 22.0882 113.583 22.8918 113.036 23.2753L113.323 23.6847ZM118.282 10.3646C118.296 10.3071 118.298 10.2413 118.275 10.1748C118.252 10.1094 118.212 10.0617 118.173 10.0288C118.103 9.96973 118.018 9.94419 117.965 9.93096C117.906 9.91615 117.842 9.90674 117.791 9.89952C117.734 9.89153 117.692 9.88605 117.656 9.87885L117.558 10.3691C117.612 10.3799 117.674 10.388 117.721 10.3946C117.773 10.402 117.813 10.4084 117.844 10.416C117.881 10.4253 117.872 10.429 117.851 10.4115C117.837 10.3995 117.815 10.3757 117.802 10.338C117.789 10.2992 117.791 10.2649 117.797 10.2434L118.282 10.3646ZM117.641 9.87629C116.831 9.76584 115.909 9.75926 115.088 10.1503L115.303 10.6017C115.994 10.2727 116.8 10.2662 117.574 10.3717L117.641 9.87629ZM115.093 10.1478C113.633 10.8009 112.567 12.4365 111.85 14.1873C111.128 15.95 110.735 17.8944 110.662 19.2545L111.161 19.2815C111.231 17.9776 111.612 16.088 112.313 14.3767C113.018 12.6535 114.021 11.1751 115.297 10.6042L115.093 10.1478ZM110.661 19.2609C110.626 20.5157 110.655 21.9564 111.347 23.0718L111.772 22.8082C111.168 21.8356 111.125 20.5403 111.161 19.2751L110.661 19.2609ZM136.848 19.7L137.085 19.7791L137.088 19.7699L137.09 19.7606L136.848 19.7ZM127.668 26.252L127.757 26.0185L127.749 26.0157L127.668 26.252ZM124.428 21.32L124.18 21.3538L124.18 21.3566L124.428 21.32ZM124.932 14.192L125.173 14.2562L125.175 14.2498L124.932 14.192ZM132.204 12.68L131.97 12.7698L131.972 12.7728L132.204 12.68ZM132.204 11.168H132.454V11.1561L132.453 11.1443L132.204 11.168ZM126.984 16.568L127.23 16.6077L127.231 16.6067L126.984 16.568ZM128.244 23.732L128.394 23.5318L128.384 23.5253L128.244 23.732ZM132.204 22.544L132.376 22.7251L132.38 22.7208L132.204 22.544ZM134.724 18.08L134.964 18.1494L134.967 18.1393L134.969 18.129L134.724 18.08ZM137.172 18.656L137.414 18.7166L137.419 18.6974L137.421 18.6777L137.172 18.656ZM136.61 19.6209C136.1 21.1516 135.113 22.8273 133.81 24.1168C132.506 25.4071 130.91 26.29 129.18 26.29V26.79C131.085 26.79 132.801 25.8189 134.162 24.4722C135.523 23.1247 136.551 21.3804 137.085 19.7791L136.61 19.6209ZM129.18 26.29C128.674 26.29 128.2 26.1889 127.757 26.0187L127.578 26.4853C128.071 26.6751 128.606 26.79 129.18 26.79V26.29ZM127.749 26.0157C126.833 25.699 126.136 25.003 125.629 24.1327C125.122 23.262 124.816 22.232 124.675 21.2834L124.18 21.3566C124.328 22.352 124.651 23.446 125.197 24.3843C125.743 25.323 126.523 26.121 127.586 26.4883L127.749 26.0157ZM124.675 21.2862C124.356 18.9472 124.569 16.5327 125.173 14.2562L124.69 14.1278C124.071 16.4593 123.851 18.9408 124.18 21.3538L124.675 21.2862ZM125.175 14.2498C125.513 12.8263 126.124 11.0954 127.076 9.72675C128.028 8.35903 129.293 7.386 130.944 7.386V6.886C129.066 6.886 127.668 8.00096 126.666 9.44125C125.665 10.8805 125.034 12.6777 124.688 14.1342L125.175 14.2498ZM130.944 7.386C133.045 7.386 134.474 9.15115 134.474 11.24H134.974C134.974 8.93685 133.379 6.886 130.944 6.886V7.386ZM134.474 11.24C134.474 11.6923 134.454 12.2166 134.301 12.6235C134.226 12.8228 134.124 12.9786 133.991 13.0846C133.861 13.1877 133.684 13.258 133.428 13.258V13.758C133.784 13.758 134.074 13.6573 134.302 13.4758C134.527 13.2972 134.673 13.0547 134.769 12.7995C134.958 12.2974 134.974 11.6877 134.974 11.24H134.474ZM133.428 13.258C133.017 13.258 132.611 13.0243 132.436 12.5872L131.972 12.7728C132.229 13.4157 132.83 13.758 133.428 13.758V13.258ZM132.437 12.5903C132.368 12.4112 132.364 12.2063 132.385 11.9593C132.405 11.7332 132.454 11.4329 132.454 11.168H131.954C131.954 11.4071 131.912 11.6288 131.887 11.9157C131.864 12.1817 131.859 12.4808 131.97 12.7697L132.437 12.5903ZM132.453 11.1443C132.415 10.7545 132.33 10.3272 132.112 9.99214C131.882 9.63877 131.515 9.406 130.98 9.406V9.906C131.344 9.906 131.554 10.0512 131.693 10.2649C131.844 10.4968 131.92 10.8255 131.955 11.1917L132.453 11.1443ZM130.98 9.406C130.265 9.406 129.661 9.77276 129.165 10.3077C128.669 10.8414 128.261 11.5619 127.929 12.3237C127.265 13.8486 126.883 15.5992 126.737 16.5293L127.231 16.6067C127.373 15.7008 127.746 13.9954 128.387 12.5233C128.708 11.7866 129.09 11.1233 129.531 10.6479C129.971 10.1737 130.452 9.906 130.98 9.906V9.406ZM126.737 16.5283C126.572 17.5527 126.462 19.0782 126.609 20.4997C126.682 21.2106 126.821 21.9051 127.055 22.5014C127.288 23.0962 127.623 23.6122 128.103 23.9386L128.384 23.5253C128.018 23.2758 127.732 22.8603 127.52 22.3189C127.308 21.7789 127.177 21.1324 127.106 20.4483C126.965 19.0798 127.071 17.5993 127.23 16.6077L126.737 16.5283ZM128.094 23.932C128.438 24.1903 128.821 24.27 129.216 24.27V23.77C128.891 23.77 128.625 23.7057 128.394 23.532L128.094 23.932ZM129.216 24.27C129.777 24.27 130.377 24.0615 130.921 23.7729C131.469 23.4825 131.983 23.0998 132.376 22.725L132.031 22.363C131.669 22.7082 131.192 23.0635 130.687 23.3311C130.179 23.6005 129.662 23.77 129.216 23.77V24.27ZM132.38 22.7208C133.641 21.46 134.487 19.7994 134.964 18.1494L134.483 18.0106C134.024 19.6006 133.214 21.18 132.027 22.3672L132.38 22.7208ZM134.969 18.129C135.008 17.9342 135.134 17.7599 135.314 17.6309C135.496 17.5013 135.716 17.43 135.912 17.43V16.93C135.604 16.93 135.283 17.0387 135.024 17.2241C134.763 17.4101 134.548 17.6858 134.479 18.031L134.969 18.129ZM135.912 17.43C136.475 17.43 136.983 17.9427 136.923 18.6343L137.421 18.6777C137.505 17.7133 136.788 16.93 135.912 16.93V17.43ZM136.929 18.5954C136.914 18.6571 136.846 18.8702 136.772 19.1018C136.702 19.3202 136.626 19.5571 136.605 19.6394L137.09 19.7606C137.106 19.6989 137.174 19.4858 137.248 19.2542C137.318 19.0358 137.394 18.7989 137.414 18.7166L136.929 18.5954ZM141.363 26.108L141.206 25.9128L141.196 25.9214L141.186 25.9312L141.363 26.108ZM139.275 25.172L139.025 25.1514L139.025 25.1595L139.275 25.172ZM139.599 1.484L139.349 1.49535L139.349 1.50108L139.599 1.484ZM142.119 1.556H141.869V1.56432L141.869 1.57263L142.119 1.556ZM142.407 12.932L142.157 12.9272L142.634 13.0352L142.407 12.932ZM153.855 15.236L153.605 15.2478L153.605 15.2486L153.855 15.236ZM153.855 25.064L153.605 25.0866L153.606 25.095L153.855 25.064ZM153.639 25.856L153.843 25.9994L153.847 25.9947L153.639 25.856ZM151.443 25.568L151.669 25.4622L151.666 25.4562L151.443 25.568ZM151.227 13.724L151.475 13.6943L151.474 13.6876L151.227 13.724ZM142.371 22.22L142.125 22.1732L142.124 22.1789L142.371 22.22ZM141.723 25.568L141.48 25.5074L141.478 25.5171L141.476 25.5269L141.723 25.568ZM141.186 25.9312C141.02 26.0973 140.797 26.182 140.571 26.182V26.682C140.92 26.682 141.273 26.5507 141.539 26.2848L141.186 25.9312ZM140.571 26.182C139.998 26.182 139.497 25.732 139.524 25.1845L139.025 25.1595C138.98 26.052 139.775 26.682 140.571 26.682V26.182ZM139.524 25.1926C140.172 17.3356 140.389 9.36659 139.848 1.46692L139.349 1.50108C139.888 9.36941 139.673 17.3124 139.025 25.1514L139.524 25.1926ZM139.848 1.47265C139.82 0.851624 140.323 0.438 140.895 0.438V-0.0620003C140.098 -0.0620003 139.305 0.532375 139.349 1.49535L139.848 1.47265ZM140.895 0.438C141.22 0.438 141.455 0.560884 141.612 0.748888C141.773 0.942147 141.869 1.22331 141.869 1.556H142.369C142.369 1.13269 142.248 0.72985 141.995 0.42811C141.739 0.121116 141.361 -0.0620003 140.895 -0.0620003V0.438ZM141.869 1.57263C142.121 5.3463 142.228 9.15512 142.157 12.9272L142.657 12.9368C142.729 9.14888 142.62 5.3257 142.368 1.53937L141.869 1.57263ZM142.634 13.0352C143.24 11.699 144.053 10.3073 145.112 9.25264C146.168 8.20114 147.458 7.494 149.031 7.494V6.994C147.291 6.994 145.881 7.78086 144.759 8.89836C143.64 10.0127 142.797 11.465 142.179 12.8288L142.634 13.0352ZM149.031 7.494C149.973 7.494 150.71 7.7833 151.292 8.25651C151.879 8.73319 152.323 9.40675 152.657 10.1905C153.327 11.7627 153.533 13.7229 153.605 15.2478L154.104 15.2242C154.032 13.6891 153.824 11.6533 153.117 9.99448C152.763 9.16275 152.277 8.41206 151.607 7.86836C150.934 7.3212 150.086 6.994 149.031 6.994V7.494ZM153.605 15.2486C153.749 18.0884 153.533 20.8945 153.533 23.768H154.033C154.033 20.9535 154.248 18.0716 154.104 15.2234L153.605 15.2486ZM153.533 23.768C153.533 24.2119 153.569 24.6893 153.606 25.0866L154.104 25.0414C154.068 24.6467 154.033 24.1881 154.033 23.768H153.533ZM153.606 25.095C153.633 25.3041 153.554 25.5322 153.431 25.7173L153.847 25.9947C154.011 25.7478 154.148 25.3999 154.103 25.033L153.606 25.095ZM153.434 25.7126C153.236 25.9946 152.96 26.11 152.631 26.11V26.61C153.093 26.61 153.537 26.4374 153.843 25.9994L153.434 25.7126ZM152.631 26.11C152.258 26.11 151.879 25.9126 151.669 25.4623L151.216 25.6737C151.51 26.3034 152.067 26.61 152.631 26.61V26.11ZM151.666 25.4562C151.65 25.4237 151.625 25.3321 151.601 25.1736C151.579 25.0256 151.561 24.8471 151.548 24.6635C151.521 24.2964 151.513 23.9244 151.513 23.768H151.013C151.013 23.9356 151.022 24.3196 151.049 24.6995C151.063 24.8894 151.081 25.0821 151.106 25.248C151.13 25.4034 151.163 25.5683 151.219 25.6798L151.666 25.4562ZM151.513 23.768C151.513 22.097 151.602 20.4279 151.643 18.7385C151.684 17.0562 151.675 15.3682 151.475 13.6943L150.978 13.7537C151.174 15.3918 151.184 17.0518 151.143 18.7265C151.103 20.3941 151.013 22.091 151.013 23.768H151.513ZM151.474 13.6876C151.384 13.0782 151.228 12.0514 150.878 11.1744C150.536 10.3162 149.956 9.478 148.959 9.478V9.978C149.618 9.978 150.081 10.5258 150.414 11.3596C150.739 12.1746 150.889 13.1458 150.979 13.7604L151.474 13.6876ZM148.959 9.478C147.827 9.478 146.874 10.1326 146.085 11.0963C145.296 12.0608 144.643 13.3668 144.108 14.7498C143.037 17.518 142.413 20.6609 142.125 22.1732L142.616 22.2668C142.904 20.7551 143.522 17.652 144.575 14.9302C145.102 13.5682 145.732 12.3182 146.472 11.4129C147.214 10.5069 148.038 9.978 148.959 9.978V9.478ZM142.124 22.1789C142.052 22.6107 141.585 25.086 141.48 25.5074L141.965 25.6286C142.076 25.186 142.545 22.6933 142.617 22.2611L142.124 22.1789ZM141.476 25.5269C141.454 25.6569 141.363 25.7875 141.206 25.9128L141.519 26.3032C141.722 26.1405 141.919 25.9111 141.969 25.6091L141.476 25.5269ZM168.629 19.7L168.866 19.7791L168.869 19.7699L168.871 19.7606L168.629 19.7ZM159.449 26.252L159.539 26.0186L159.533 26.0166L159.449 26.252ZM156.209 21.32L155.961 21.3536L155.962 21.356L156.209 21.32ZM157.145 12.644L156.908 12.5629L156.907 12.5659L157.145 12.644ZM164.741 7.712L164.884 7.50691L164.873 7.5L164.741 7.712ZM164.813 15.344L164.629 15.1747L164.628 15.1753L164.813 15.344ZM158.621 17.684L158.682 17.4415L158.4 17.371L158.372 17.6601L158.621 17.684ZM160.205 23.84L160.325 23.6203L160.315 23.6154L160.205 23.84ZM161.501 23.948L161.456 23.7021L161.448 23.7035L161.44 23.7055L161.501 23.948ZM166.505 18.08L166.745 18.1497L166.748 18.1395L166.75 18.129L166.505 18.08ZM168.953 18.656L169.195 18.7166L169.2 18.6974L169.202 18.6777L168.953 18.656ZM159.089 15.056L158.844 15.0048L158.813 15.1519L158.929 15.2481L159.089 15.056ZM163.841 12.212L164.072 12.307L164.075 12.2984L163.841 12.212ZM163.625 10.088L163.417 10.2269L163.425 10.238L163.625 10.088ZM168.392 19.6209C167.882 21.1516 166.894 22.8273 165.591 24.1168C164.288 25.4071 162.691 26.29 160.961 26.29V26.79C162.867 26.79 164.582 25.8189 165.943 24.4722C167.304 23.1247 168.332 21.3804 168.866 19.7791L168.392 19.6209ZM160.961 26.29C160.455 26.29 159.981 26.1889 159.539 26.0187L159.359 26.4853C159.852 26.6751 160.387 26.79 160.961 26.79V26.29ZM159.533 26.0166C157.654 25.3456 156.741 23.2411 156.456 21.284L155.962 21.356C156.253 23.3589 157.212 25.7184 159.365 26.4874L159.533 26.0166ZM156.457 21.2864C156.067 18.4159 156.491 15.4307 157.382 12.7221L156.907 12.5659C155.998 15.3293 155.559 18.3921 155.961 21.3536L156.457 21.2864ZM157.381 12.7251C157.808 11.4808 158.443 10.1369 159.332 9.10849C160.218 8.08377 161.342 7.386 162.761 7.386V6.886C161.156 6.886 159.904 7.68223 158.954 8.78151C158.007 9.87712 157.346 11.2872 156.908 12.5629L157.381 12.7251ZM162.761 7.386C163.396 7.386 164.07 7.58771 164.608 7.924L164.873 7.5C164.259 7.11629 163.494 6.886 162.761 6.886V7.386ZM164.598 7.91681C165.779 8.74379 166.289 9.99956 166.255 11.3326C166.221 12.6713 165.635 14.0816 164.629 15.1747L164.997 15.5133C166.078 14.3384 166.717 12.8147 166.755 11.3454C166.793 9.87044 166.223 8.44421 164.884 7.50719L164.598 7.91681ZM164.628 15.1753C164.07 15.786 163.317 16.3988 162.487 16.8577C161.655 17.3174 160.761 17.614 159.917 17.614V18.114C160.873 18.114 161.851 17.7806 162.729 17.2953C163.608 16.8092 164.404 16.162 164.997 15.5127L164.628 15.1753ZM159.917 17.614C159.512 17.614 159.102 17.5465 158.682 17.4415L158.56 17.9265C159.004 18.0375 159.458 18.114 159.917 18.114V17.614ZM158.372 17.6601C158.281 18.6094 158.253 19.9652 158.465 21.1959C158.571 21.8114 158.738 22.4064 158.996 22.9065C159.254 23.407 159.609 23.8267 160.095 24.0646L160.315 23.6154C159.955 23.4393 159.667 23.1165 159.441 22.6776C159.214 22.2383 159.058 21.6971 158.957 21.1111C158.755 19.9388 158.781 18.6306 158.87 17.7079L158.372 17.6601ZM160.085 24.0595C160.555 24.3159 161.094 24.3075 161.562 24.1905L161.44 23.7055C161.044 23.8045 160.647 23.7961 160.325 23.6205L160.085 24.0595ZM161.546 24.1939C162.912 23.9438 164.05 22.9793 164.918 21.8259C165.789 20.6689 166.414 19.2906 166.745 18.1497L166.265 18.0103C165.948 19.1014 165.349 20.4231 164.519 21.5251C163.686 22.6307 162.646 23.4842 161.456 23.7021L161.546 24.1939ZM166.75 18.129C166.789 17.9342 166.915 17.7599 167.096 17.6309C167.277 17.5013 167.497 17.43 167.693 17.43V16.93C167.385 16.93 167.065 17.0387 166.805 17.2241C166.545 17.4101 166.329 17.6858 166.26 18.031L166.75 18.129ZM167.693 17.43C168.257 17.43 168.764 17.9427 168.704 18.6343L169.202 18.6777C169.286 17.7133 168.569 16.93 167.693 16.93V17.43ZM168.71 18.5954C168.695 18.6571 168.627 18.8702 168.553 19.1018C168.483 19.3202 168.407 19.5571 168.386 19.6394L168.871 19.7606C168.887 19.6989 168.955 19.4858 169.029 19.2542C169.099 19.0358 169.175 18.7989 169.195 18.7166L168.71 18.5954ZM158.929 15.2481C159.189 15.4646 159.533 15.594 159.881 15.594V15.094C159.653 15.094 159.421 15.0074 159.249 14.8639L158.929 15.2481ZM159.881 15.594C160.792 15.594 161.694 15.122 162.428 14.4946C163.165 13.8649 163.767 13.0505 164.072 12.3069L163.61 12.1171C163.339 12.7775 162.789 13.5291 162.104 14.1144C161.416 14.702 160.626 15.094 159.881 15.094V15.594ZM164.075 12.2984C164.348 11.5578 164.321 10.5993 163.825 9.938L163.425 10.238C163.793 10.7287 163.837 11.4982 163.606 12.1256L164.075 12.2984ZM163.833 9.94932C163.565 9.54727 163.158 9.37 162.725 9.37V9.87C163.012 9.87 163.253 9.98073 163.417 10.2267L163.833 9.94932ZM162.725 9.37C162.135 9.37 161.618 9.6552 161.18 10.0702C160.742 10.4848 160.366 11.0452 160.051 11.6406C159.421 12.8317 159.01 14.2141 158.844 15.0048L159.334 15.1072C159.492 14.3499 159.89 13.0143 160.493 11.8744C160.795 11.3043 161.141 10.7959 161.524 10.4331C161.906 10.0708 162.307 9.87 162.725 9.87V9.37Z" fill="black" mask="url(#path-1-outside-1_13_154)"/>
</svg>
