<svg width="316" height="59" viewBox="0 0 316 59" fill="none" xmlns="http://www.w3.org/2000/svg">
<rect x="0.5" y="28.5" width="315" height="30" rx="9.5" fill="#D9D9D9" fill-opacity="0.29" stroke="black"/>
<path d="M9.72 18.56C9.58 18.84 9.34 18.96 9.08 18.96C8.78 18.96 8.46 18.76 8.34 18.4C8.1 17.52 8.04 13.44 8.04 12.52C7.42 12.5 6.78 12.54 6.16 12.56C5 12.6 3.82 12.64 2.66 12.78C2.66 13.94 2.64 15.08 2.64 16.24C2.64 16.48 2.64 17.94 2.62 18.2C2.6 18.38 2.48 18.54 2.34 18.66C2.2 18.74 2.06 18.78 1.92 18.78C1.56 18.78 1.22 18.5 1.22 18.08C1.24 17.36 1.26 12.88 1.28 12.16C1.3 10.84 1.26 9.52 1.18 8.22C1.16 7.88 1.04 6.12 1 5.78C0.98 5.68 0.94 5.56 0.96 5.46C1.02 5.08 1.34 4.84 1.68 4.84C1.86 4.84 2.06 4.92 2.2 5.1C2.58 5.54 2.68 10.58 2.68 11.38C3.78 11.26 4.9 11.2 6.02 11.16C6.68 11.14 7.36 11.1 8.04 11.12C8.04 9.96 8.06 8.78 8.12 7.6C8.14 6.94 8.16 6.26 8.26 5.6C8.3 5.38 8.34 5.16 8.44 4.98C8.54 4.74 8.84 4.56 9.1 4.56C9.52 4.56 9.88 4.98 9.74 5.48C9.74 5.5 9.68 5.64 9.66 5.66C9.36 7.3 9.44 15.02 9.54 16.68C9.56 17.08 9.58 17.48 9.66 17.88C9.8 18.08 9.82 18.34 9.72 18.56ZM13.0222 5.16C13.6222 5.52 13.4422 6.44 12.7622 6.5C12.2422 6.54 11.8622 6.06 12.0022 5.56C12.0822 5.24 12.3822 5.06 12.6622 5.06C12.7822 5.06 12.9022 5.1 13.0222 5.16ZM12.8222 18.56C12.6822 18.76 12.4822 18.86 12.2622 18.86C11.9822 18.86 11.7222 18.7 11.6022 18.4C11.4822 18.08 11.4822 16.72 11.4822 16.4C11.4822 15.74 11.6222 11.94 11.6622 11.28C11.6822 10.9 11.7222 10.52 11.7422 10.14C11.7622 9.84 11.7422 9.52 11.8222 9.24C11.8822 8.94 12.2022 8.76 12.5022 8.76C12.9222 8.76 13.2822 9.12 13.2022 9.56C13.1422 9.9 13.0222 11.66 13.0222 12C12.9822 12.62 12.8822 16.24 12.8822 16.86C12.8822 17.28 12.9222 17.7 12.9622 18.14C12.9622 18.28 12.9222 18.44 12.8222 18.56ZM16.2039 18.78C16.0839 19.1 15.8239 19.24 15.5639 19.24C15.2039 19.24 14.8439 18.98 14.8439 18.52C14.8439 17.08 14.9039 15.62 14.9039 14.16C14.8839 12.68 14.8239 11.18 14.6439 9.7C14.6039 9.22 14.9439 8.86 15.3439 8.86C15.4839 8.86 15.6239 8.9 15.7439 8.98C15.8839 9.1 16.0039 9.28 16.0239 9.46C16.1439 10.46 16.2239 11.48 16.2639 12.48C16.9039 10.74 18.0639 8.58 20.2039 8.58C22.1239 8.58 22.7439 10.5 22.9039 12.12C23.0439 13.34 23.0239 14.58 22.9639 15.8C22.9439 16.7 22.8639 17.6 22.9439 18.48C22.9639 18.64 22.9039 18.8 22.8239 18.92C22.6839 19.12 22.4639 19.22 22.2439 19.22C21.9639 19.22 21.7039 19.04 21.5839 18.74C21.5039 18.5 21.5039 17.4 21.5239 17.12C21.5839 15.28 21.7639 13.4 21.4039 11.58C21.2839 10.94 21.0039 9.94 20.1839 9.94C19.5239 9.94 18.8439 10.56 18.4639 11.12C17.4239 12.72 16.9239 15.02 16.5639 16.88C16.5239 17.14 16.2839 18.54 16.2039 18.78ZM29.4919 18.62C29.1519 18.8 28.7919 18.92 28.4119 18.92C27.6319 18.92 26.7919 18.5 26.3119 17.92C25.9719 17.48 25.7519 16.94 25.6119 16.38C25.1719 14.52 25.2119 12.54 25.2719 10.62C24.9319 10.62 24.5519 10.72 24.2719 10.54C23.8519 10.24 23.8719 9.62 24.3119 9.36C24.6119 9.18 24.9919 9.22 25.3119 9.22C25.3319 8.84 25.4519 7.14 25.5719 6.78C25.6919 6.44 25.9719 6.28 26.2519 6.28C26.6119 6.28 26.9519 6.54 26.9519 6.98C26.9519 7.08 26.9319 7.16 26.9119 7.24C26.8119 7.9 26.7519 8.56 26.7119 9.24C27.2119 9.24 27.6919 9.26 28.1719 9.32C29.0319 9.46 28.9719 10.66 28.1119 10.72C27.9919 10.74 27.8919 10.7 27.7719 10.68C27.6319 10.66 26.8119 10.64 26.6719 10.64C26.6319 12.1 26.4719 16.08 27.4919 17.14C27.7319 17.38 28.0919 17.52 28.4119 17.52C28.6319 17.52 28.8119 17.36 29.0119 17.32C29.7919 17.18 30.1519 18.22 29.4919 18.62ZM31.8981 10.82C31.7781 10.88 31.6581 10.92 31.5381 10.92C31.1781 10.92 30.8381 10.62 30.8381 10.22C30.8381 9.8 31.1781 9.52 31.5581 9.52C31.6581 9.52 31.7781 9.54 31.8981 9.6C32.3581 9.88 32.3581 10.54 31.8981 10.82ZM31.9981 18.52C31.9181 18.84 31.5981 19.02 31.2781 19.02C31.0781 19.02 30.8981 18.96 30.7581 18.82C30.2981 18.36 30.6781 17.6 31.3381 17.6C31.8181 17.6 32.1181 18.06 31.9981 18.52Z" fill="black"/>
<path d="M41.0653 14.9318C41.0653 14.0369 41.1813 13.2143 41.4134 12.4638C41.6477 11.7109 41.9815 11.0185 42.4148 10.3864H43.1534C42.983 10.6207 42.8232 10.9096 42.674 11.2528C42.5272 11.5937 42.3982 11.969 42.2869 12.3786C42.1757 12.7857 42.0881 13.2071 42.0241 13.6428C41.9626 14.0784 41.9318 14.508 41.9318 14.9318C41.9318 15.4953 41.9863 16.067 42.0952 16.647C42.2041 17.227 42.3509 17.7656 42.5355 18.2628C42.7202 18.7599 42.9261 19.1648 43.1534 19.4773H42.4148C41.9815 18.8452 41.6477 18.1539 41.4134 17.4034C41.1813 16.6506 41.0653 15.8267 41.0653 14.9318ZM46.4888 18.1136C45.9964 18.1136 45.5643 17.9964 45.1926 17.7621C44.8233 17.5277 44.5345 17.1998 44.3262 16.7784C44.1202 16.357 44.0172 15.8646 44.0172 15.3011C44.0172 14.733 44.1202 14.237 44.3262 13.8132C44.5345 13.3894 44.8233 13.0604 45.1926 12.826C45.5643 12.5916 45.9964 12.4744 46.4888 12.4744C46.9812 12.4744 47.4121 12.5916 47.7814 12.826C48.1531 13.0604 48.4419 13.3894 48.6479 13.8132C48.8562 14.237 48.9604 14.733 48.9604 15.3011C48.9604 15.8646 48.8562 16.357 48.6479 16.7784C48.4419 17.1998 48.1531 17.5277 47.7814 17.7621C47.4121 17.9964 46.9812 18.1136 46.4888 18.1136ZM46.4888 17.3608C46.8629 17.3608 47.1706 17.2649 47.4121 17.0732C47.6536 16.8814 47.8323 16.6293 47.9483 16.3168C48.0643 16.0043 48.1223 15.6657 48.1223 15.3011C48.1223 14.9366 48.0643 14.5968 47.9483 14.282C47.8323 13.9671 47.6536 13.7126 47.4121 13.5185C47.1706 13.3243 46.8629 13.2273 46.4888 13.2273C46.1148 13.2273 45.807 13.3243 45.5655 13.5185C45.324 13.7126 45.1453 13.9671 45.0293 14.282C44.9133 14.5968 44.8553 14.9366 44.8553 15.3011C44.8553 15.6657 44.9133 16.0043 45.0293 16.3168C45.1453 16.6293 45.324 16.8814 45.5655 17.0732C45.807 17.2649 46.1148 17.3608 46.4888 17.3608ZM50.2397 20.0455V12.5455H51.0494V13.4119H51.1488C51.2103 13.3172 51.2956 13.1965 51.4045 13.0497C51.5157 12.9006 51.6744 12.768 51.8803 12.652C52.0887 12.5336 52.3704 12.4744 52.7255 12.4744C53.1848 12.4744 53.5896 12.5893 53.94 12.8189C54.2904 13.0485 54.5638 13.3741 54.7603 13.7955C54.9568 14.2169 55.055 14.714 55.055 15.2869C55.055 15.8646 54.9568 16.3653 54.7603 16.7891C54.5638 17.2105 54.2915 17.5372 53.9435 17.7692C53.5955 17.9988 53.1942 18.1136 52.7397 18.1136C52.3893 18.1136 52.1088 18.0556 51.8981 17.9396C51.6874 17.8213 51.5252 17.6875 51.4116 17.5384C51.2979 17.3868 51.2103 17.2614 51.1488 17.1619H51.0778V20.0455H50.2397ZM51.0636 15.2727C51.0636 15.6847 51.1239 16.0481 51.2447 16.3629C51.3654 16.6754 51.5418 16.9205 51.7738 17.098C52.0058 17.2732 52.2899 17.3608 52.6261 17.3608C52.9764 17.3608 53.2688 17.2685 53.5032 17.0838C53.7399 16.8968 53.9175 16.6458 54.0359 16.331C54.1566 16.0137 54.217 15.661 54.217 15.2727C54.217 14.8892 54.1578 14.5436 54.0394 14.2358C53.9234 13.9257 53.747 13.6806 53.5103 13.5007C53.2759 13.3184 52.9812 13.2273 52.6261 13.2273C52.2852 13.2273 51.9987 13.3137 51.7667 13.4865C51.5347 13.657 51.3595 13.8961 51.2411 14.2038C51.1228 14.5092 51.0636 14.8655 51.0636 15.2727ZM58.7056 12.5455V13.2557H55.8789V12.5455H58.7056ZM56.7028 11.2386H57.5408V16.4375C57.5408 16.6742 57.5752 16.8518 57.6438 16.9702C57.7148 17.0862 57.8048 17.1643 57.9137 17.2045C58.025 17.2424 58.1422 17.2614 58.2653 17.2614C58.3576 17.2614 58.4334 17.2566 58.4925 17.2472C58.5517 17.2353 58.5991 17.2259 58.6346 17.2188L58.805 17.9716C58.7482 17.9929 58.6689 18.0142 58.5671 18.0355C58.4653 18.0592 58.3363 18.071 58.18 18.071C57.9433 18.071 57.7113 18.0201 57.484 17.9183C57.2591 17.8165 57.0721 17.6615 56.9229 17.4531C56.7762 17.2448 56.7028 16.982 56.7028 16.6648V11.2386ZM59.9663 18V12.5455H60.8043V18H59.9663ZM60.3924 11.6364C60.229 11.6364 60.0882 11.5807 59.9698 11.4695C59.8538 11.3582 59.7958 11.2244 59.7958 11.0682C59.7958 10.9119 59.8538 10.7782 59.9698 10.6669C60.0882 10.5556 60.229 10.5 60.3924 10.5C60.5558 10.5 60.6954 10.5556 60.8114 10.6669C60.9298 10.7782 60.989 10.9119 60.989 11.0682C60.989 11.2244 60.9298 11.3582 60.8114 11.4695C60.6954 11.5807 60.5558 11.6364 60.3924 11.6364ZM64.5552 18.1136C64.0628 18.1136 63.6307 17.9964 63.2591 17.7621C62.8897 17.5277 62.6009 17.1998 62.3926 16.7784C62.1866 16.357 62.0836 15.8646 62.0836 15.3011C62.0836 14.733 62.1866 14.237 62.3926 13.8132C62.6009 13.3894 62.8897 13.0604 63.2591 12.826C63.6307 12.5916 64.0628 12.4744 64.5552 12.4744C65.0476 12.4744 65.4785 12.5916 65.8478 12.826C66.2195 13.0604 66.5083 13.3894 66.7143 13.8132C66.9226 14.237 67.0268 14.733 67.0268 15.3011C67.0268 15.8646 66.9226 16.357 66.7143 16.7784C66.5083 17.1998 66.2195 17.5277 65.8478 17.7621C65.4785 17.9964 65.0476 18.1136 64.5552 18.1136ZM64.5552 17.3608C64.9293 17.3608 65.237 17.2649 65.4785 17.0732C65.72 16.8814 65.8987 16.6293 66.0147 16.3168C66.1307 16.0043 66.1887 15.6657 66.1887 15.3011C66.1887 14.9366 66.1307 14.5968 66.0147 14.282C65.8987 13.9671 65.72 13.7126 65.4785 13.5185C65.237 13.3243 64.9293 13.2273 64.5552 13.2273C64.1812 13.2273 63.8734 13.3243 63.6319 13.5185C63.3904 13.7126 63.2117 13.9671 63.0957 14.282C62.9797 14.5968 62.9217 14.9366 62.9217 15.3011C62.9217 15.6657 62.9797 16.0043 63.0957 16.3168C63.2117 16.6293 63.3904 16.8814 63.6319 17.0732C63.8734 17.2649 64.1812 17.3608 64.5552 17.3608ZM69.1442 14.7188V18H68.3061V12.5455H69.1158V13.3977H69.1868C69.3146 13.1207 69.5088 12.8982 69.7692 12.7301C70.0296 12.5597 70.3658 12.4744 70.7777 12.4744C71.147 12.4744 71.4702 12.5502 71.7472 12.7017C72.0241 12.8509 72.2396 13.0781 72.3935 13.3835C72.5473 13.6866 72.6243 14.0701 72.6243 14.5341V18H71.7862V14.5909C71.7862 14.1624 71.675 13.8286 71.4524 13.5895C71.2299 13.348 70.9245 13.2273 70.5362 13.2273C70.2687 13.2273 70.0296 13.2853 69.8189 13.4013C69.6106 13.5173 69.446 13.6866 69.3253 13.9091C69.2045 14.1316 69.1442 14.4015 69.1442 14.7188ZM75.7608 18.1278C75.4152 18.1278 75.1015 18.0627 74.8198 17.9325C74.5381 17.8 74.3143 17.6094 74.1486 17.3608C73.9829 17.1098 73.9 16.8068 73.9 16.4517C73.9 16.1392 73.9616 15.8859 74.0847 15.6918C74.2078 15.4953 74.3723 15.3414 74.5783 15.2301C74.7843 15.1188 75.0115 15.036 75.2601 14.9815C75.5111 14.9247 75.7632 14.8797 76.0165 14.8466C76.348 14.804 76.6167 14.772 76.8226 14.7507C77.031 14.727 77.1825 14.688 77.2772 14.6335C77.3742 14.5791 77.4228 14.4844 77.4228 14.3494V14.321C77.4228 13.9706 77.3269 13.6984 77.1351 13.5043C76.9457 13.3101 76.6581 13.2131 76.2722 13.2131C75.8721 13.2131 75.5584 13.3007 75.3311 13.4759C75.1039 13.651 74.9441 13.8381 74.8517 14.0369L74.0563 13.7528C74.1983 13.4214 74.3877 13.1634 74.6245 12.9787C74.8636 12.7917 75.124 12.6615 75.4057 12.5881C75.6898 12.5123 75.9692 12.4744 76.2438 12.4744C76.419 12.4744 76.6202 12.4957 76.8475 12.5384C77.0771 12.5786 77.2985 12.6626 77.5115 12.7905C77.727 12.9183 77.9057 13.1113 78.0478 13.3693C78.1898 13.6274 78.2608 13.973 78.2608 14.4062V18H77.4228V17.2614H77.3801C77.3233 17.3797 77.2286 17.5064 77.0961 17.6413C76.9635 17.7763 76.7871 17.8911 76.5669 17.9858C76.3468 18.0805 76.0781 18.1278 75.7608 18.1278ZM75.8887 17.375C76.2201 17.375 76.4995 17.3099 76.7267 17.1797C76.9564 17.0495 77.1292 16.8814 77.2452 16.6754C77.3636 16.4695 77.4228 16.2528 77.4228 16.0256V15.2585C77.3873 15.3011 77.3091 15.3402 77.1884 15.3757C77.07 15.4089 76.9327 15.4384 76.7765 15.4645C76.6226 15.4882 76.4722 15.5095 76.3255 15.5284C76.181 15.545 76.0639 15.5592 75.9739 15.571C75.7561 15.5994 75.5525 15.6456 75.3631 15.7095C75.1761 15.7711 75.0246 15.8646 74.9086 15.9901C74.7949 16.1132 74.7381 16.2812 74.7381 16.4943C74.7381 16.7855 74.8458 17.0057 75.0613 17.1548C75.2791 17.3016 75.5549 17.375 75.8887 17.375ZM80.6286 10.7273V18H79.7905V10.7273H80.6286ZM83.9533 14.9318C83.9533 15.8267 83.8361 16.6506 83.6017 17.4034C83.3697 18.1539 83.0371 18.8452 82.6039 19.4773H81.8652C82.0357 19.2429 82.1943 18.9541 82.3411 18.6108C82.4902 18.2699 82.6204 17.8958 82.7317 17.4886C82.843 17.0791 82.9294 16.6565 82.9909 16.2209C83.0549 15.7829 83.0868 15.3532 83.0868 14.9318C83.0868 14.3684 83.0324 13.7966 82.9235 13.2166C82.8146 12.6366 82.6678 12.098 82.4831 11.6009C82.2985 11.1037 82.0925 10.6989 81.8652 10.3864H82.6039C83.0371 11.0185 83.3697 11.7109 83.6017 12.4638C83.8361 13.2143 83.9533 14.0369 83.9533 14.9318Z" fill="#939393"/>
</svg>
